<svg width="169" height="150" viewBox="0 0 169 150" fill="none" xmlns="http://www.w3.org/2000/svg">
<path fill-rule="evenodd" clip-rule="evenodd" d="M82.4663 87.0772C82.297 86.9077 82.1051 86.749 81.8908 86.6012C80.8703 85.8974 79.1882 85.1056 76.8447 84.2258C75.7108 83.8035 74.6146 83.3812 73.5563 82.9589C72.5357 82.5015 71.6475 81.9736 70.8915 81.3754C70.6798 81.2079 70.48 81.0307 70.292 80.8439L84.4342 94.986C84.6221 95.1728 84.822 95.35 85.0336 95.5175C85.7896 96.1157 86.6778 96.6436 87.6984 97.101C88.7567 97.5233 89.8529 97.9456 90.9868 98.3679C93.3303 99.2477 95.0124 100.04 96.0329 100.743C96.2473 100.891 96.4391 101.05 96.6084 101.219L82.4663 87.0772Z" fill="black"/>
<path fill-rule="evenodd" clip-rule="evenodd" d="M70.292 80.8439C69.8087 80.3635 69.4038 79.8192 69.0772 79.2111C68.6236 78.3666 68.3968 77.3284 68.3968 76.0968C68.3968 73.6686 69.3607 71.7507 71.2884 70.3431C73.2161 68.9003 75.8431 68.1789 79.1693 68.1789C80.0009 68.1789 80.8325 68.2317 81.664 68.3372C82.4956 68.4076 83.2705 68.5132 83.9886 68.654C84.7068 68.7595 85.3305 68.8827 85.8597 69.0235C86.4266 69.1642 86.8613 69.2874 87.1637 69.393L101.306 83.5351C101.003 83.4295 100.569 83.3063 100.002 83.1656C99.4726 83.0248 98.8489 82.9016 98.1307 82.7961C97.4126 82.6553 96.6377 82.5497 95.8061 82.4793C94.9746 82.3738 94.143 82.321 93.3114 82.321C89.9852 82.321 87.3582 83.0424 85.4305 84.4852C83.5028 85.8928 82.5389 87.8107 82.5389 90.2389C82.5389 91.4705 82.7657 92.5087 83.2193 93.3532C83.5459 93.9613 83.9509 94.5056 84.4342 94.986L70.292 80.8439Z" fill="black"/>
<path fill-rule="evenodd" clip-rule="evenodd" d="M87.1637 69.393L86.1999 73.6158C85.6329 73.3343 84.7446 73.0528 83.5351 72.7713C82.3255 72.4545 80.8703 72.2962 79.1693 72.2962C77.6952 72.2962 76.4101 72.5777 75.3139 73.1408C74.2178 73.6686 73.6697 74.5132 73.6697 75.6745C73.6697 76.2727 73.7831 76.8006 74.0099 77.2581C74.1793 77.5509 74.395 77.8292 74.6572 78.0932L88.7994 92.2353C88.5371 91.9714 88.3214 91.693 88.152 91.4002C87.9252 90.9427 87.8118 90.4148 87.8118 89.8166C87.8118 88.6553 88.3599 87.8107 89.456 87.2829C90.5522 86.7198 91.8373 86.4383 93.3114 86.4383C95.0124 86.4383 96.4676 86.5966 97.6772 86.9134C98.8867 87.1949 99.775 87.4764 100.342 87.7579L101.306 83.5351L87.1637 69.393Z" fill="black"/>
<path fill-rule="evenodd" clip-rule="evenodd" d="M74.6572 78.0932C74.8047 78.2416 74.9669 78.3855 75.1438 78.5249C75.673 78.8768 76.3156 79.2111 77.0715 79.5279C77.8275 79.8446 78.7347 80.1789 79.793 80.5308C81.1916 81.0235 82.4389 81.5161 83.5351 82.0088C84.6312 82.4663 85.5573 83.0117 86.3132 83.6452L100.455 97.7873C99.6994 97.1538 98.7733 96.6084 97.6772 96.1509C96.581 95.6582 95.3337 95.1656 93.9351 94.6729C92.8768 94.321 91.9696 93.9867 91.2136 93.67C90.4577 93.3532 89.8151 93.0189 89.2859 92.667C89.109 92.5277 88.9468 92.3838 88.7993 92.2353L74.6572 78.0932Z" fill="black"/>
<path fill-rule="evenodd" clip-rule="evenodd" d="M86.3132 83.6452C86.5037 83.7972 86.6833 83.9573 86.8521 84.1256L100.994 98.2677C100.825 98.0995 100.646 97.9394 100.455 97.7873L86.3132 83.6452Z" fill="black"/>
<path fill-rule="evenodd" clip-rule="evenodd" d="M86.8521 84.1256C87.3864 84.6583 87.8116 85.2724 88.1276 85.9677C88.5433 86.8475 88.7512 87.9384 88.7512 89.2405C88.7512 91.7742 87.7307 93.6921 85.6896 94.9941C83.6863 96.2962 80.8136 96.9472 77.0715 96.9472C74.4634 96.9472 72.4223 96.7361 70.9482 96.3138C69.4741 95.9267 68.4724 95.6276 67.9432 95.4164L82.0853 109.559C82.6145 109.77 83.6162 110.069 85.0903 110.456C86.5644 110.878 88.6055 111.089 91.2136 111.089C94.9557 111.089 97.8284 110.438 99.8317 109.136C101.873 107.834 102.893 105.916 102.893 103.383C102.893 102.081 102.685 100.99 102.27 100.11C101.954 99.4145 101.529 98.8005 100.994 98.2677L86.8521 84.1256Z" fill="black"/>
<path fill-rule="evenodd" clip-rule="evenodd" d="M67.9432 95.4164L68.9071 91.1936C69.5119 91.4047 70.4757 91.7214 71.7987 92.1437C73.1216 92.566 74.8792 92.7771 77.0715 92.7771C79.226 92.7771 80.8136 92.5132 81.8341 91.9853C82.8925 91.4575 83.4217 90.6129 83.4217 89.4516C83.4217 88.5064 83.1032 87.7149 82.4663 87.0772L96.6084 101.219C97.2454 101.857 97.5638 102.648 97.5638 103.594C97.5638 104.755 97.0346 105.6 95.9762 106.127C94.9557 106.655 93.3681 106.919 91.2136 106.919C89.0213 106.919 87.2637 106.708 85.9408 106.286C84.6178 105.864 83.654 105.547 83.0492 105.336L82.0853 109.559L67.9432 95.4164Z" fill="black"/>
<path fill-rule="evenodd" clip-rule="evenodd" d="M111.22 84.2258C110.842 84.0499 110.218 83.9091 109.349 83.8035C108.517 83.6628 107.497 83.5924 106.287 83.5924C105.493 83.5924 104.643 83.6452 103.736 83.7507C102.866 83.8563 102.054 84.085 101.298 84.437C100.58 84.7537 99.9749 85.2111 99.4835 85.8094C98.9921 86.3724 98.7464 87.129 98.7464 88.0792C98.7464 89.434 99.105 90.4759 99.8223 91.2048L113.964 105.347C113.247 104.618 112.889 103.576 112.889 102.221C112.889 101.271 113.134 100.515 113.626 99.9515C114.117 99.3532 114.722 98.8958 115.44 98.5791C116.196 98.2271 117.008 97.9984 117.878 97.8928C118.785 97.7873 119.635 97.7345 120.429 97.7345C121.639 97.7345 122.659 97.8049 123.491 97.9456C124.36 98.0512 124.984 98.192 125.362 98.3679L111.22 84.2258Z" fill="black"/>
<path fill-rule="evenodd" clip-rule="evenodd" d="M99.8223 91.2048C100.037 91.4225 100.283 91.6123 100.561 91.7742C101.77 92.4428 103.415 92.7771 105.493 92.7771C106.741 92.7771 107.837 92.7595 108.782 92.7243C109.765 92.654 110.577 92.5484 111.22 92.4076V84.2258L125.362 98.3679V106.55C124.719 106.691 123.907 106.796 122.924 106.866C121.979 106.902 120.883 106.919 119.635 106.919C117.557 106.919 115.912 106.585 114.703 105.916C114.425 105.754 114.179 105.565 113.964 105.347L99.8223 91.2048Z" fill="black"/>
<path fill-rule="evenodd" clip-rule="evenodd" d="M113.67 70.9112C113.744 70.9843 113.815 71.0589 113.885 71.1349L128.027 85.277C127.958 85.201 127.886 85.1265 127.813 85.0534L113.67 70.9112Z" fill="black"/>
<path fill-rule="evenodd" clip-rule="evenodd" d="M113.885 71.1349C114.792 72.0499 115.434 73.1584 115.812 74.4604C116.19 75.7273 116.379 77.1349 116.379 78.6833V95.8387C115.926 95.9091 115.283 96.0147 114.452 96.1554C113.658 96.261 112.751 96.3666 111.73 96.4721C110.71 96.5777 109.595 96.6657 108.385 96.7361C107.213 96.8416 106.041 96.8944 104.87 96.8944C103.207 96.8944 101.676 96.7361 100.277 96.4194C98.8787 96.1026 97.6691 95.61 96.6486 94.9414C96.2812 94.688 95.9432 94.4072 95.6346 94.0991L109.777 108.241C110.085 108.549 110.423 108.83 110.791 109.084C111.811 109.752 113.021 110.245 114.419 110.562C115.818 110.878 117.349 111.037 119.012 111.037C120.183 111.037 121.355 110.984 122.527 110.878C123.737 110.808 124.852 110.72 125.872 110.614C126.893 110.509 127.8 110.403 128.594 110.298C129.425 110.157 130.068 110.051 130.521 109.981V92.8254C130.521 91.277 130.332 89.8694 129.954 88.6025C129.576 87.3005 128.934 86.192 128.027 85.277L113.885 71.1349Z" fill="black"/>
<path fill-rule="evenodd" clip-rule="evenodd" d="M95.6346 94.0991C95.0859 93.5514 94.6302 92.9172 94.2673 92.1965C93.7003 91.0704 93.4168 89.7155 93.4168 88.132C93.4168 86.6188 93.7381 85.3167 94.3807 84.2258C95.0611 83.1349 95.9682 82.2551 97.1022 81.5865C98.2361 80.9179 99.5591 80.4252 101.071 80.1085C102.583 79.7918 104.17 79.6334 105.834 79.6334C106.363 79.6334 106.911 79.6686 107.478 79.739C108.045 79.7742 108.574 79.8446 109.065 79.9501C109.595 80.0205 110.048 80.0909 110.426 80.1613C110.804 80.2317 111.069 80.2845 111.22 80.3196V78.9472C111.22 78.1378 111.125 77.346 110.936 76.5719C110.747 75.7625 110.407 75.0587 109.916 74.4604C109.813 74.3274 109.701 74.2006 109.581 74.08L123.723 88.2221C123.843 88.3427 123.955 88.4695 124.058 88.6025C124.549 89.2008 124.889 89.9046 125.078 90.714C125.267 91.4881 125.362 92.2799 125.362 93.0893V94.4617C125.211 94.4266 124.946 94.3738 124.568 94.3034C124.19 94.233 123.737 94.1626 123.207 94.0922C122.716 93.9867 122.187 93.9163 121.62 93.8811C121.053 93.8107 120.505 93.7755 119.976 93.7755C118.312 93.7755 116.725 93.9339 115.213 94.2506C113.701 94.5673 112.378 95.06 111.244 95.7286C110.11 96.3972 109.203 97.277 108.523 98.3679C107.88 99.4588 107.559 100.761 107.559 102.274C107.559 103.858 107.842 105.213 108.409 106.339C108.772 107.059 109.228 107.694 109.777 108.241L95.6346 94.0991Z" fill="black"/>
<path fill-rule="evenodd" clip-rule="evenodd" d="M109.581 74.08C109.13 73.6263 108.562 73.2604 107.875 72.9824C107.043 72.5953 105.947 72.4018 104.586 72.4018C102.848 72.4018 101.317 72.5249 99.9938 72.7713C98.7086 72.9824 97.7447 73.2111 97.1022 73.4575L111.244 87.5996C111.887 87.3532 112.851 87.1245 114.136 86.9134C115.459 86.667 116.99 86.5439 118.728 86.5439C120.089 86.5439 121.185 86.7374 122.017 87.1245C122.704 87.4025 123.272 87.7684 123.723 88.2221L109.581 74.08Z" fill="black"/>
<path fill-rule="evenodd" clip-rule="evenodd" d="M97.1022 73.4575L96.4785 69.393C97.1589 69.1114 98.2928 68.8475 99.8804 68.6012C101.468 68.3196 103.188 68.1789 105.04 68.1789C107.157 68.1789 108.933 68.4428 110.369 68.9707C111.726 69.4239 112.826 70.0707 113.67 70.9112L127.813 85.0534C126.968 84.2129 125.868 83.566 124.511 83.1128C123.075 82.5849 121.299 82.321 119.182 82.321C117.33 82.321 115.61 82.4617 114.023 82.7433C112.435 82.9896 111.301 83.2535 110.621 83.5351L111.244 87.5996L97.1022 73.4575Z" fill="black"/>
<path fill-rule="evenodd" clip-rule="evenodd" d="M126.781 84.912C126.441 82.5191 126.157 80.1261 125.931 77.7331C125.704 75.305 125.59 72.6129 125.59 69.6569V59.7331H131.26L145.402 73.8752H139.732V83.799C139.732 86.755 139.846 89.4471 140.073 91.8752C140.299 94.2682 140.583 96.6612 140.923 99.0541L126.781 84.912Z" fill="black"/>
<path fill-rule="evenodd" clip-rule="evenodd" d="M131.26 59.7331V69.6569C131.26 72.6129 131.147 75.305 130.92 77.7331C130.693 80.1261 130.41 82.5191 130.07 84.912H126.781L140.923 99.0541H144.212C144.552 96.6612 144.835 94.2682 145.062 91.8752C145.289 89.4471 145.402 86.755 145.402 83.799V73.8752L131.26 59.7331Z" fill="black"/>
<path fill-rule="evenodd" clip-rule="evenodd" d="M125.688 95.9861C125.674 95.9723 125.661 95.9584 125.647 95.9443L139.789 110.086C139.803 110.101 139.816 110.114 139.83 110.128L125.688 95.9861Z" fill="black"/>
<path fill-rule="evenodd" clip-rule="evenodd" d="M125.647 95.9443C124.967 95.2405 124.627 94.4135 124.627 93.4633C124.627 92.5132 124.967 91.6862 125.647 90.9824C126.328 90.2786 127.254 89.9267 128.425 89.9267C129.574 89.9267 130.486 90.2647 131.163 90.9406L145.305 105.083C144.628 104.407 143.716 104.069 142.567 104.069C141.396 104.069 140.47 104.421 139.789 105.125C139.109 105.828 138.769 106.655 138.769 107.605C138.769 108.556 139.109 109.383 139.789 110.086L125.647 95.9443Z" fill="black"/>
<path fill-rule="evenodd" clip-rule="evenodd" d="M131.163 90.9406C131.177 90.9544 131.19 90.9683 131.204 90.9824L145.346 105.125C145.333 105.11 145.319 105.097 145.305 105.083L131.163 90.9406Z" fill="black"/>
<path fill-rule="evenodd" clip-rule="evenodd" d="M131.204 90.9824C131.884 91.6862 132.224 92.5132 132.224 93.4633C132.224 94.4135 131.884 95.2405 131.204 95.9443C130.523 96.6481 129.597 97 128.425 97C127.277 97 126.365 96.662 125.688 95.9861L139.83 110.128C140.507 110.804 141.42 111.142 142.567 111.142C143.739 111.142 144.665 110.79 145.346 110.086C146.026 109.383 146.366 108.556 146.366 107.605C146.366 106.655 146.026 105.828 145.346 105.125L131.204 90.9824Z" fill="black"/>
<path fill-rule="evenodd" clip-rule="evenodd" d="M149.139 4.5139C152.137 7.42189 154 11.4934 154 16V106C154 108.899 153.229 111.617 151.882 113.962C145.802 129.137 119 135 119 135C119 135 121.167 125.167 119 122L133.142 136.142C135.309 139.309 133.142 149.142 133.142 149.142C133.142 149.142 159.944 143.279 166.024 128.104C167.371 125.759 168.142 123.041 168.142 120.142V30.1421C168.142 25.6355 166.279 21.564 163.281 18.656L149.139 4.5139Z" fill="black"/>
<path fill-rule="evenodd" clip-rule="evenodd" d="M119 122H16C11.5817 122 7.58172 120.209 4.68629 117.314L18.8284 131.456C21.7239 134.351 25.7239 136.142 30.1421 136.142H133.142L119 122Z" fill="black"/>
<path fill-rule="evenodd" clip-rule="evenodd" d="M4.6863 117.314C1.79087 114.418 7.62939e-06 110.419 7.62939e-06 106V16C7.62939e-06 7.16345 7.16345 0 16 0H138C142.33 0 146.258 1.71994 149.139 4.5139L163.281 18.656C160.4 15.8621 156.472 14.1421 152.142 14.1421H30.1421C21.3056 14.1421 14.1421 21.3056 14.1421 30.1421V120.142C14.1421 124.561 15.933 128.561 18.8284 131.456L4.6863 117.314Z" fill="black"/>
<path fill-rule="evenodd" clip-rule="evenodd" d="M17 51.3666C17.5292 51.6481 18.1717 51.9472 18.9277 52.2639C19.7215 52.5806 20.6475 52.8798 21.7059 53.1613C22.8021 53.4428 24.0494 53.6716 25.4479 53.8475C26.8465 54.0587 28.4151 54.1642 30.1538 54.1642C35.3322 54.1642 39.2066 53.2317 41.7768 51.3666C44.3471 49.4663 45.6323 46.8094 45.6323 43.3959C45.6323 41.6364 45.3866 40.1408 44.8952 38.9091C44.4677 37.8375 43.84 36.8858 43.0119 36.054L57.1541 50.1961C57.9821 51.028 58.6098 51.9797 59.0373 53.0512C59.5287 54.2829 59.7744 55.7785 59.7744 57.538C59.7744 60.9515 58.4892 63.6084 55.9189 65.5087C53.3487 67.3738 49.4743 68.3063 44.2959 68.3063C42.5572 68.3063 40.9886 68.2008 39.59 67.9896C38.1915 67.8137 36.9442 67.5849 35.848 67.3034C34.7896 67.0219 33.8636 66.7227 33.0698 66.406C32.3138 66.0893 31.6713 65.7902 31.1421 65.5087L17 51.3666Z" fill="black"/>
<path fill-rule="evenodd" clip-rule="evenodd" d="M43.0119 36.054C42.8882 35.9297 42.76 35.8081 42.6273 35.6891L56.7694 49.8312C56.9021 49.9502 57.0303 50.0718 57.1541 50.1961L43.0119 36.054Z" fill="black"/>
<path fill-rule="evenodd" clip-rule="evenodd" d="M42.6273 35.6891C41.6446 34.7742 40.3972 33.9824 38.8853 33.3138C37.3733 32.61 35.5968 31.9062 33.5557 31.2023C32.5729 30.8856 31.6658 30.5865 30.8342 30.305C30.0404 29.9883 29.3223 29.654 28.6797 29.3021C28.2926 29.0544 27.9598 28.7922 27.6811 28.5156L41.8232 42.6577C42.1019 42.9343 42.4348 43.1965 42.8218 43.4442C43.4644 43.7961 44.1825 44.1304 44.9763 44.4471C45.8079 44.7286 46.715 45.0277 47.6978 45.3444C49.7389 46.0483 51.5154 46.7521 53.0274 47.4559C54.5393 48.1245 55.7867 48.9163 56.7694 49.8312L42.6273 35.6891Z" fill="black"/>
<path fill-rule="evenodd" clip-rule="evenodd" d="M27.6811 28.5156C27.5243 28.36 27.3847 28.1999 27.2623 28.0352C26.9221 27.5777 26.752 27.0147 26.752 26.346C26.752 25.2199 27.2056 24.393 28.1127 23.8651C29.0577 23.3021 30.5885 23.0205 32.7052 23.0205C34.5951 23.0205 36.2016 23.2317 37.5245 23.654C38.8853 24.0411 40.1137 24.4985 41.2099 25.0264L43.7613 18.5337L57.9034 32.6758L55.352 39.1685C54.2558 38.6406 53.0274 38.1832 51.6666 37.7961C50.3437 37.3738 48.7372 37.1626 46.8473 37.1626C44.7306 37.1626 43.1998 37.4442 42.2548 38.0072C41.3477 38.5351 40.8941 39.362 40.8941 40.4881C40.8941 41.1568 41.0642 41.7198 41.4044 42.1773C41.5269 42.342 41.6665 42.5022 41.8232 42.6578L27.6811 28.5156Z" fill="black"/>
<path fill-rule="evenodd" clip-rule="evenodd" d="M43.7613 18.5337C42.5139 17.9003 40.9264 17.3197 38.9987 16.7918C37.0709 16.2639 34.7841 16 32.1383 16C29.9081 16 27.9048 16.2639 26.1283 16.7918C24.3518 17.2845 22.8399 18.0059 21.5925 18.956C20.3452 19.9062 19.3813 21.0674 18.7009 22.4399C18.0206 23.7771 17.6804 25.2903 17.6804 26.9795C17.6804 28.6686 18.0017 30.1114 18.6442 31.3079C19.1197 32.1673 19.6987 32.9399 20.3812 33.6258L34.5234 47.7679C33.8409 47.082 33.2619 46.3094 32.7863 45.45C32.1438 44.2535 31.8225 42.8107 31.8225 41.1216C31.8225 39.4324 32.1627 37.9192 32.843 36.582C33.5234 35.2095 34.4873 34.0483 35.7346 33.0981C36.982 32.148 38.4939 31.4266 40.2704 30.9339C42.0469 30.406 44.0502 30.1421 46.2804 30.1421C48.9262 30.1421 51.213 30.406 53.1408 30.9339C55.0685 31.4618 56.656 32.0424 57.9034 32.6758L43.7613 18.5337Z" fill="black"/>
<path fill-rule="evenodd" clip-rule="evenodd" d="M20.3812 33.6258C20.621 33.8668 20.8736 34.0971 21.1389 34.3167L35.281 48.4588C35.0157 48.2392 34.7632 48.0089 34.5234 47.7679L20.3812 33.6258Z" fill="black"/>
<path fill-rule="evenodd" clip-rule="evenodd" d="M21.1389 34.3167C22.1595 35.1261 23.3123 35.8123 24.5975 36.3754C25.8826 36.9032 27.1678 37.3783 28.4529 37.8006C31.4012 38.7155 33.4801 39.5777 34.6896 40.3871C35.0041 40.5884 35.2777 40.804 35.5104 41.0338L49.6526 55.1759C49.4199 54.9461 49.1462 54.7305 48.8317 54.5292C47.6222 53.7198 45.5433 52.8576 42.595 51.9427C41.3099 51.5204 40.0247 51.0453 38.7396 50.5175C37.4544 49.9544 36.3016 49.2682 35.281 48.4588L21.1389 34.3167Z" fill="black"/>
<path fill-rule="evenodd" clip-rule="evenodd" d="M35.5104 41.0338C36.1728 41.6879 36.504 42.4577 36.504 43.3431C36.504 43.9062 36.4095 44.4164 36.2205 44.8739C36.0315 45.3314 35.6913 45.7361 35.1999 46.088C34.7085 46.4047 34.0471 46.6686 33.2155 46.8798C32.4217 47.0557 31.4012 47.1437 30.1538 47.1437C27.6591 47.1437 25.5424 46.915 23.8037 46.4575C22.1028 45.9648 20.6664 45.4194 19.4947 44.8211L17 51.3666L31.1421 65.5087L33.6368 58.9632C34.8085 59.5615 36.2449 60.1069 37.9458 60.5996C39.6845 61.0571 41.8012 61.2858 44.2959 61.2858C45.5433 61.2858 46.5638 61.1978 47.3576 61.0219C48.1892 60.8107 48.8506 60.5468 49.342 60.2301C49.8334 59.8782 50.1736 59.4735 50.3626 59.016C50.5516 58.5585 50.6461 58.0483 50.6461 57.4852C50.6461 56.5998 50.315 55.8301 49.6526 55.1759L35.5104 41.0338Z" fill="black"/>
<path fill-rule="evenodd" clip-rule="evenodd" d="M62.8701 16.8446H54.4222C54.0442 19.2727 53.6851 22 53.3449 25.0264C53.0425 28.0176 52.759 31.1496 52.4945 34.4223C52.2677 37.6598 52.0409 40.915 51.8141 44.1877C51.6251 47.4604 51.455 50.5396 51.3038 53.4252L65.4459 67.5673C65.5971 64.6817 65.7672 61.6025 65.9562 58.3298C66.183 55.0571 66.4098 51.8019 66.6366 48.5644C66.9011 45.2917 67.1846 42.1597 67.487 39.1685C67.8272 36.1421 68.1863 33.4148 68.5643 30.9867H77.0122L62.8701 16.8446Z" fill="black"/>
<path fill-rule="evenodd" clip-rule="evenodd" d="M51.3038 53.4252H59.9218C60.0352 49.871 60.1864 46 60.3754 41.8123C60.5644 37.6246 60.8479 33.4018 61.2259 29.1437L75.368 43.2858C74.99 47.5439 74.7065 51.7667 74.5175 55.9544C74.3285 60.1421 74.1773 64.0131 74.0639 67.5673H65.4459L51.3038 53.4252Z" fill="black"/>
<path fill-rule="evenodd" clip-rule="evenodd" d="M61.2259 29.1437C61.9063 30.6217 62.6622 32.2581 63.4938 34.0528C64.3254 35.8475 65.138 37.6422 65.9318 39.437C66.7634 41.2317 67.5571 42.956 68.3131 44.61C69.0691 46.2287 69.7116 47.6188 70.2408 48.7801L84.3829 62.9222C83.8537 61.7609 83.2112 60.3708 82.4552 58.7521C81.6992 57.0981 80.9055 55.3738 80.0739 53.5791C79.2801 51.7843 78.4675 49.9896 77.6359 48.1949C76.8043 46.4002 76.0484 44.7638 75.368 43.2858L61.2259 29.1437Z" fill="black"/>
<path fill-rule="evenodd" clip-rule="evenodd" d="M70.2408 48.7801H76.4208C76.95 47.6188 77.5926 46.2287 78.3486 44.61C79.1045 42.956 79.8794 41.2317 80.6732 39.437L83.1679 34.0528C83.9994 32.2581 84.7554 30.6217 85.4358 29.1437L99.5779 43.2858C98.8975 44.7638 98.1415 46.4002 97.31 48.1949L94.8153 53.5791C94.0215 55.3738 93.2466 57.0981 92.4907 58.7521C91.7347 60.3708 91.0921 61.7609 90.5629 62.9222H84.3829L70.2408 48.7801Z" fill="black"/>
<path fill-rule="evenodd" clip-rule="evenodd" d="M85.4358 29.1437C85.8137 33.4018 86.0972 37.6246 86.2862 41.8123C86.4752 46 86.6264 49.871 86.7398 53.4252L100.882 67.5673C100.769 64.0131 100.617 60.1421 100.428 55.9544C100.239 51.7667 99.9558 47.5439 99.5779 43.2858L85.4358 29.1437Z" fill="black"/>
<path fill-rule="evenodd" clip-rule="evenodd" d="M86.7398 53.4252H95.3578C95.2066 50.5396 95.0176 47.4604 94.7909 44.1877C94.6019 40.915 94.3751 37.6598 94.1105 34.4223C93.8837 31.1496 93.6002 28.0176 93.26 25.0264C92.9576 22 92.6175 19.2727 92.2395 16.8446L106.382 30.9867C106.76 33.4148 107.1 36.1421 107.402 39.1685C107.742 42.1597 108.026 45.2917 108.253 48.5644C108.517 51.8019 108.744 55.0571 108.933 58.3298C109.16 61.6025 109.349 64.6817 109.5 67.5673H100.882L86.7398 53.4252Z" fill="black"/>
<path fill-rule="evenodd" clip-rule="evenodd" d="M92.2395 16.8446H84.1884C83.508 18.0059 82.7143 19.4487 81.8071 21.173C80.9378 22.8622 80.0117 24.7097 79.0289 26.7155C78.084 28.6862 77.139 30.7097 76.1941 32.7859C75.2491 34.8622 74.3608 36.8153 73.5293 38.6452L87.6714 52.7873C88.5029 50.9574 89.3912 49.0043 90.3362 46.928C91.2811 44.8518 92.2261 42.8283 93.171 40.8576C94.1538 38.8518 95.0799 37.0043 95.9492 35.3151C96.8564 33.5908 97.6501 32.148 98.3305 30.9867H106.382L92.2395 16.8446Z" fill="black"/>
<path fill-rule="evenodd" clip-rule="evenodd" d="M73.5293 38.6452C72.6977 36.8153 71.8094 34.8622 70.8645 32.7859C69.9195 30.7097 68.9557 28.6862 67.9729 26.7155C67.0279 24.7097 66.1019 22.8622 65.1947 21.173C64.3254 19.4487 63.5505 18.0059 62.8701 16.8446L77.0122 30.9867C77.6926 32.148 78.4675 33.5908 79.3368 35.3151C80.244 37.0043 81.17 38.8518 82.115 40.8576C83.0978 42.8283 84.0616 44.8518 85.0066 46.928C85.9515 49.0043 86.8398 50.9574 87.6714 52.7873L73.5293 38.6452Z" fill="black"/>
<path fill-rule="evenodd" clip-rule="evenodd" d="M126.511 53.4252H137C134.316 49.3783 131.5 45.6833 128.552 42.3402L142.694 56.4823C145.642 59.8254 148.458 63.5204 151.142 67.5673H140.653L126.511 53.4252Z" fill="black"/>
<path fill-rule="evenodd" clip-rule="evenodd" d="M128.552 42.3402C127.475 41.1033 126.383 39.9289 125.275 38.8172L139.417 52.9594C140.525 54.0711 141.617 55.2454 142.694 56.4823L128.552 42.3402Z" fill="black"/>
<path fill-rule="evenodd" clip-rule="evenodd" d="M125.275 38.8172C123.389 36.9243 121.457 35.213 119.48 33.6833L133.622 47.8254C135.599 49.3551 137.531 51.0665 139.417 52.9594L125.275 38.8172Z" fill="black"/>
<path fill-rule="evenodd" clip-rule="evenodd" d="M119.48 33.6833C122.467 30.9032 125.301 28.1408 127.985 25.3959C130.707 22.651 133.409 19.8006 136.093 16.8446L150.235 30.9867C147.551 33.9427 144.849 36.7931 142.127 39.538C139.443 42.2829 136.609 45.0453 133.622 47.8254L119.48 33.6833Z" fill="black"/>
<path fill-rule="evenodd" clip-rule="evenodd" d="M136.093 16.8446H125.604C123.6 18.9208 121.427 21.1906 119.084 23.654C116.778 26.0821 114.472 28.4223 112.166 30.6745L126.308 44.8166C128.614 42.5644 130.92 40.2242 133.226 37.7961C135.569 35.3327 137.742 33.0629 139.746 30.9867H150.235L136.093 16.8446Z" fill="black"/>
<path fill-rule="evenodd" clip-rule="evenodd" d="M112.166 30.6745V16.8446L126.308 30.9867V44.8166L112.166 30.6745Z" fill="black"/>
<path fill-rule="evenodd" clip-rule="evenodd" d="M112.166 16.8446H103.322V53.4252L117.464 67.5673V30.9867H126.308L112.166 16.8446Z" fill="black"/>
<path fill-rule="evenodd" clip-rule="evenodd" d="M103.322 53.4252H112.166V37.9589C113.527 38.9443 114.888 40.088 116.249 41.39L130.391 55.5321C129.03 54.2301 127.669 53.0864 126.308 52.101V67.5673H117.464L103.322 53.4252Z" fill="black"/>
<path fill-rule="evenodd" clip-rule="evenodd" d="M116.249 41.39C116.739 41.8461 117.221 42.3113 117.696 42.7856L131.838 56.9277C131.363 56.4534 130.881 55.9882 130.391 55.5321L116.249 41.39Z" fill="black"/>
<path fill-rule="evenodd" clip-rule="evenodd" d="M117.696 42.7856C118.541 43.6288 119.362 44.5009 120.161 45.4018L134.303 59.5439C133.504 58.643 132.683 57.771 131.838 56.9277L117.696 42.7856Z" fill="black"/>
<path fill-rule="evenodd" clip-rule="evenodd" d="M120.161 45.4018C121.446 46.7742 122.618 48.1642 123.676 49.5718C124.772 50.9443 125.717 52.2287 126.511 53.4252L140.653 67.5673C139.859 66.3708 138.914 65.0864 137.818 63.7139C136.76 62.3063 135.588 60.9163 134.303 59.5439L120.161 45.4018Z" fill="black"/>
<path fill-rule="evenodd" clip-rule="evenodd" d="M46.426 79.7918C45.0653 78.4194 43.2321 77.4164 40.9264 76.783L55.0685 90.9251C57.3742 91.5585 59.2074 92.5615 60.5681 93.9339L46.426 79.7918Z" fill="black"/>
<path fill-rule="evenodd" clip-rule="evenodd" d="M40.9264 76.783C42.6273 76.1496 43.988 75.1994 45.0086 73.9326C46.0292 72.6305 46.5394 70.9765 46.5394 68.9707C46.5394 67.1759 46.1237 65.6628 45.2921 64.4311C45.001 64 44.6706 63.5991 44.3009 63.2284L58.443 77.3705C58.8128 77.7412 59.1432 78.1421 59.4342 78.5732C60.2658 79.8049 60.6815 81.318 60.6815 83.1128C60.6815 85.1186 60.1713 86.7726 59.1507 88.0747C58.1301 89.3415 56.7694 90.2917 55.0685 90.9251L40.9264 76.783Z" fill="black"/>
<path fill-rule="evenodd" clip-rule="evenodd" d="M44.3009 63.2284C43.6142 62.5399 42.7917 61.9555 41.8335 61.4751C40.3972 60.7009 38.6774 60.1554 36.6741 59.8387C34.7085 59.522 32.5918 59.3636 30.3239 59.3636C29.5302 59.3636 28.6797 59.3812 27.7725 59.4164C26.8654 59.4516 25.9393 59.5044 24.9944 59.5748C24.0872 59.6452 23.18 59.7331 22.2729 59.8387C21.3657 59.9443 20.5341 60.085 19.7782 60.261V95.7331L33.9203 109.875V74.4031C34.6762 74.2271 35.5078 74.0864 36.415 73.9808C37.3221 73.8752 38.2293 73.7873 39.1365 73.7169C40.0814 73.6465 41.0075 73.5937 41.9146 73.5585C42.8218 73.5233 43.6723 73.5057 44.466 73.5057C46.7339 73.5057 48.8506 73.6641 50.8162 73.9808C52.8195 74.2975 54.5393 74.843 55.9756 75.6172C56.9339 76.0976 57.7563 76.682 58.443 77.3705L44.3009 63.2284Z" fill="black"/>
<path fill-rule="evenodd" clip-rule="evenodd" d="M19.7782 95.7331C20.5341 95.9091 21.3657 96.0499 22.2729 96.1554C23.18 96.261 24.0872 96.349 24.9944 96.4194C25.9393 96.4897 26.8654 96.5425 27.7725 96.5777C28.7175 96.6129 29.5869 96.6305 30.3806 96.6305C36.6552 96.6305 41.2288 95.7155 44.1014 93.8856C47.0119 92.0205 48.4672 89.2581 48.4672 85.5982C48.4672 83.0997 47.7868 81.1642 46.426 79.7918L60.5681 93.9339C61.9289 95.3063 62.6093 97.2418 62.6093 99.7403C62.6093 103.4 61.154 106.163 58.2435 108.028C55.3709 109.858 50.7973 110.773 44.5227 110.773C43.729 110.773 42.8596 110.755 41.9146 110.72C41.0075 110.685 40.0814 110.632 39.1365 110.562C38.2293 110.491 37.3221 110.403 36.415 110.298C35.5078 110.192 34.6762 110.051 33.9203 109.875L19.7782 95.7331Z" fill="black"/>
<path fill-rule="evenodd" clip-rule="evenodd" d="M55.8706 96.3138H61.1435V68.8651L75.2856 83.0072V110.456H70.0127L55.8706 96.3138Z" fill="black"/>
<path fill-rule="evenodd" clip-rule="evenodd" d="M61.1435 68.8651H55.8706V96.3138L70.0127 110.456V83.0072H75.2856L61.1435 68.8651Z" fill="black"/>
<path fill-rule="evenodd" clip-rule="evenodd" d="M56.0407 63.0587C56.7211 63.6217 57.5338 63.9032 58.4787 63.9032C59.4237 63.9032 60.2174 63.6217 60.86 63.0587C61.5404 62.4604 61.8806 61.6686 61.8806 60.6833C61.8806 59.8063 61.6111 59.0967 61.0722 58.5542L75.2143 72.6963C75.7533 73.2388 76.0227 73.9484 76.0227 74.8254C76.0227 75.8107 75.6825 76.6025 75.0021 77.2008C74.3595 77.7638 73.5658 78.0453 72.6208 78.0453C71.6759 78.0453 70.8632 77.7638 70.1828 77.2008L56.0407 63.0587Z" fill="black"/>
<path fill-rule="evenodd" clip-rule="evenodd" d="M61.0722 58.5542C61.0056 58.4871 60.9349 58.4226 60.86 58.3607L75.0021 72.5028C75.077 72.5648 75.1477 72.6293 75.2143 72.6963L61.0722 58.5542Z" fill="black"/>
<path fill-rule="evenodd" clip-rule="evenodd" d="M60.86 58.3607C60.2174 57.7625 59.4237 57.4633 58.4787 57.4633C57.5338 57.4633 56.7211 57.7625 56.0407 58.3607C55.3981 58.9238 55.0769 59.6979 55.0769 60.6833C55.0769 61.6193 55.3668 62.3807 55.9467 62.9675L70.0889 77.1096C69.5089 76.5229 69.219 75.7615 69.219 74.8254C69.219 73.84 69.5402 73.0659 70.1828 72.5028C70.8632 71.9046 71.6759 71.6054 72.6208 71.6054C73.5658 71.6054 74.3595 71.9046 75.0021 72.5028L60.86 58.3607Z" fill="black"/>
<path fill-rule="evenodd" clip-rule="evenodd" d="M55.9467 62.9675C55.9773 62.9984 56.0086 63.0288 56.0407 63.0587L70.1828 77.2008C70.1507 77.1709 70.1194 77.1405 70.0889 77.1096L55.9467 62.9675Z" fill="black"/>
<path fill-rule="evenodd" clip-rule="evenodd" d="M67.9432 95.4164C68.4724 95.6276 69.4741 95.9267 70.9482 96.3138C72.4223 96.7361 74.4634 96.9472 77.0715 96.9472C80.8136 96.9472 83.6863 96.2962 85.6896 94.9941C87.7307 93.6921 88.7512 91.7742 88.7512 89.2405C88.7512 87.9384 88.5433 86.8475 88.1276 85.9677C87.8158 85.2815 87.3976 84.6745 86.8731 84.1467L101.015 98.2888C101.54 98.8166 101.958 99.4237 102.27 100.11C102.685 100.99 102.893 102.081 102.893 103.383C102.893 105.916 101.873 107.834 99.8317 109.136C97.8284 110.438 94.9557 111.089 91.2136 111.089C88.6055 111.089 86.5644 110.878 85.0903 110.456C83.6162 110.069 82.6145 109.77 82.0853 109.559L67.9432 95.4164Z" fill="black"/>
<path fill-rule="evenodd" clip-rule="evenodd" d="M86.8731 84.1466C86.6983 83.9707 86.5117 83.8036 86.3132 83.6452C85.5573 83.0117 84.6312 82.4663 83.5351 82.0088C82.4389 81.5161 81.1916 81.0235 79.793 80.5308C78.7347 80.1789 77.8275 79.8446 77.0715 79.5279C76.3156 79.2111 75.673 78.8768 75.1438 78.5249C74.9718 78.3894 74.8137 78.2496 74.6695 78.1055L88.8117 92.2477C88.9559 92.3918 89.114 92.5316 89.2859 92.667C89.8151 93.0189 90.4577 93.3532 91.2136 93.67C91.9696 93.9867 92.8768 94.321 93.9351 94.6729C95.3337 95.1656 96.581 95.6582 97.6772 96.1509C98.7733 96.6084 99.6994 97.1538 100.455 97.7873C100.654 97.9457 100.84 98.1128 101.015 98.2888L86.8731 84.1466Z" fill="black"/>
<path fill-rule="evenodd" clip-rule="evenodd" d="M74.6695 78.1055C74.4018 77.8379 74.1819 77.5555 74.0099 77.2581C73.7831 76.8006 73.6697 76.2727 73.6697 75.6745C73.6697 74.5132 74.2178 73.6686 75.3139 73.1408C76.4101 72.5777 77.6952 72.2962 79.1693 72.2962C80.8703 72.2962 82.3255 72.4545 83.5351 72.7713C84.7446 73.0528 85.6329 73.3343 86.1999 73.6158L87.1637 69.393L101.306 83.5351L100.342 87.7579C99.775 87.4764 98.8867 87.1949 97.6772 86.9134C96.4676 86.5966 95.0124 86.4383 93.3114 86.4383C91.8373 86.4383 90.5522 86.7198 89.456 87.2829C88.3599 87.8107 87.8118 88.6553 87.8118 89.8166C87.8118 90.4148 87.9252 90.9427 88.152 91.4002C88.324 91.6976 88.5439 91.9801 88.8117 92.2477L74.6695 78.1055Z" fill="black"/>
<path fill-rule="evenodd" clip-rule="evenodd" d="M87.1637 69.393C86.8613 69.2874 86.4266 69.1642 85.8597 69.0235C85.3305 68.8827 84.7068 68.7595 83.9886 68.654C83.2705 68.5132 82.4956 68.4076 81.664 68.3372C80.8325 68.2317 80.0009 68.1789 79.1693 68.1789C75.8431 68.1789 73.2161 68.9003 71.2884 70.3431C69.3607 71.7507 68.3968 73.6686 68.3968 76.0968C68.3968 77.3284 68.6236 78.3666 69.0772 79.2111C69.3993 79.8108 69.7975 80.3483 70.272 80.8238L84.4141 94.966C83.9396 94.4905 83.5414 93.9529 83.2193 93.3532C82.7657 92.5087 82.5389 91.4705 82.5389 90.2389C82.5389 87.8107 83.5028 85.8928 85.4305 84.4852C87.3582 83.0424 89.9852 82.321 93.3114 82.321C94.143 82.321 94.9746 82.3738 95.8061 82.4793C96.6377 82.5497 97.4126 82.6553 98.1307 82.7961C98.8489 82.9016 99.4726 83.0248 100.002 83.1656C100.569 83.3063 101.003 83.4295 101.306 83.5351L87.1637 69.393Z" fill="black"/>
<path fill-rule="evenodd" clip-rule="evenodd" d="M70.272 80.8238C70.4658 81.018 70.6723 81.2019 70.8915 81.3754C71.6475 81.9736 72.5357 82.5015 73.5563 82.9589C74.6146 83.3812 75.7108 83.8035 76.8447 84.2258C79.1882 85.1056 80.8703 85.8974 81.8908 86.6012C82.0949 86.742 82.2786 86.8926 82.4419 87.053L96.5841 101.195C96.4208 101.035 96.2371 100.884 96.0329 100.743C95.0124 100.04 93.3303 99.2477 90.9868 98.3679C89.8529 97.9456 88.7567 97.5233 87.6984 97.101C86.6778 96.6436 85.7896 96.1157 85.0336 95.5175C84.8144 95.344 84.6079 95.1602 84.4141 94.966L70.272 80.8238Z" fill="black"/>
<path fill-rule="evenodd" clip-rule="evenodd" d="M82.4419 87.053C83.0951 87.6949 83.4217 88.4944 83.4217 89.4516C83.4217 90.6129 82.8925 91.4575 81.8341 91.9853C80.8136 92.5132 79.226 92.7771 77.0715 92.7771C74.8792 92.7771 73.1216 92.566 71.7987 92.1437C70.4757 91.7214 69.5119 91.4047 68.9071 91.1936L67.9432 95.4164L82.0853 109.559L83.0492 105.336C83.654 105.547 84.6178 105.864 85.9408 106.286C87.2637 106.708 89.0213 106.919 91.2136 106.919C93.3681 106.919 94.9557 106.655 95.9762 106.127C97.0346 105.6 97.5638 104.755 97.5638 103.594C97.5638 102.637 97.2373 101.837 96.5841 101.195L82.4419 87.053Z" fill="black"/>
<path fill-rule="evenodd" clip-rule="evenodd" d="M97.1022 73.4575C97.7447 73.2111 98.7086 72.9824 99.9938 72.7713C101.317 72.5249 102.848 72.4018 104.586 72.4018C105.947 72.4018 107.043 72.5953 107.875 72.9824C108.553 73.2569 109.116 73.617 109.564 74.0628L123.706 88.2049C123.258 87.7592 122.695 87.399 122.017 87.1245C121.185 86.7374 120.089 86.5439 118.728 86.5439C116.99 86.5439 115.459 86.667 114.136 86.9134C112.851 87.1245 111.887 87.3532 111.244 87.5996L97.1022 73.4575Z" fill="black"/>
<path fill-rule="evenodd" clip-rule="evenodd" d="M109.564 74.0628C109.69 74.1885 109.808 74.3211 109.916 74.4604L124.058 88.6025C123.95 88.4632 123.833 88.3307 123.706 88.2049L109.564 74.0628Z" fill="black"/>
<path fill-rule="evenodd" clip-rule="evenodd" d="M109.916 74.4604C110.407 75.0587 110.747 75.7625 110.936 76.5719C111.125 77.346 111.22 78.1378 111.22 78.9472V80.3196C111.069 80.2845 110.804 80.2317 110.426 80.1613C110.048 80.0909 109.595 80.0205 109.065 79.9501C108.574 79.8446 108.045 79.7742 107.478 79.739C106.911 79.6686 106.363 79.6334 105.834 79.6334C104.17 79.6334 102.583 79.7918 101.071 80.1085C99.5591 80.4252 98.2361 80.9179 97.1022 81.5865C95.9682 82.2551 95.0611 83.1349 94.3807 84.2258C93.7381 85.3167 93.4168 86.6188 93.4168 88.132C93.4168 89.7155 93.7003 91.0704 94.2673 92.1965C94.6245 92.9059 95.0717 93.5316 95.6089 94.0734L109.751 108.216C109.214 107.674 108.767 107.048 108.409 106.339C107.842 105.213 107.559 103.858 107.559 102.274C107.559 100.761 107.88 99.4588 108.523 98.3679C109.203 97.277 110.11 96.3972 111.244 95.7286C112.378 95.06 113.701 94.5673 115.213 94.2506C116.725 93.9339 118.312 93.7755 119.976 93.7755C120.505 93.7755 121.053 93.8107 121.62 93.8811C122.187 93.9163 122.716 93.9867 123.207 94.0922C123.737 94.1626 124.19 94.233 124.568 94.3034C124.946 94.3738 125.211 94.4266 125.362 94.4617V93.0893C125.362 92.2799 125.267 91.4881 125.078 90.714C124.889 89.9046 124.549 89.2008 124.058 88.6025L109.916 74.4604Z" fill="black"/>
<path fill-rule="evenodd" clip-rule="evenodd" d="M95.6089 94.0734C95.9244 94.3916 96.271 94.681 96.6486 94.9414C97.6691 95.61 98.8787 96.1026 100.277 96.4194C101.676 96.7361 103.207 96.8944 104.87 96.8944C106.041 96.8944 107.213 96.8416 108.385 96.7361C109.595 96.6657 110.71 96.5777 111.73 96.4721C112.751 96.3666 113.658 96.261 114.452 96.1554C115.283 96.0147 115.926 95.9091 116.379 95.8387V78.6833C116.379 77.1349 116.19 75.7273 115.812 74.4604C115.434 73.1584 114.792 72.0499 113.885 71.1349L128.027 85.277C128.934 86.192 129.576 87.3005 129.954 88.6025C130.332 89.8694 130.521 91.277 130.521 92.8254V109.981C130.068 110.051 129.425 110.157 128.594 110.298C127.8 110.403 126.893 110.509 125.872 110.614C124.852 110.72 123.737 110.808 122.527 110.878C121.355 110.984 120.183 111.037 119.012 111.037C117.349 111.037 115.818 110.878 114.419 110.562C113.021 110.245 111.811 109.752 110.791 109.084C110.413 108.823 110.067 108.534 109.751 108.216L95.6089 94.0734Z" fill="black"/>
<path fill-rule="evenodd" clip-rule="evenodd" d="M113.885 71.1349C113.824 71.0684 113.762 71.003 113.698 70.9387L127.84 85.0809C127.904 85.1451 127.966 85.2105 128.027 85.277L113.885 71.1349Z" fill="black"/>
<path fill-rule="evenodd" clip-rule="evenodd" d="M113.698 70.9387C112.85 70.0848 111.741 69.4288 110.369 68.9707C108.933 68.4428 107.157 68.1789 105.04 68.1789C103.188 68.1789 101.468 68.3196 99.8804 68.6012C98.2928 68.8475 97.1589 69.1114 96.4785 69.393L97.1022 73.4575L111.244 87.5996L110.621 83.5351C111.301 83.2535 112.435 82.9896 114.023 82.7433C115.61 82.4617 117.33 82.321 119.182 82.321C121.299 82.321 123.075 82.5849 124.511 83.1128C125.883 83.571 126.992 84.227 127.84 85.0809L113.698 70.9387Z" fill="black"/>
<path fill-rule="evenodd" clip-rule="evenodd" d="M131.26 59.7331H125.59V69.6569C125.59 72.6129 125.704 75.305 125.931 77.7331C126.157 80.1261 126.441 82.5191 126.781 84.912L140.923 99.0541C140.583 96.6612 140.299 94.2682 140.073 91.8752C139.846 89.4471 139.732 86.755 139.732 83.799V73.8752H145.402L131.26 59.7331Z" fill="black"/>
<path fill-rule="evenodd" clip-rule="evenodd" d="M126.781 84.912H130.07C130.41 82.5191 130.693 80.1261 130.92 77.7331C131.147 75.305 131.26 72.6129 131.26 69.6569V59.7331L145.402 73.8752V83.799C145.402 86.755 145.289 89.4471 145.062 91.8752C144.835 94.2682 144.552 96.6612 144.212 99.0541H140.923L126.781 84.912Z" fill="black"/>
<path fill-rule="evenodd" clip-rule="evenodd" d="M131.204 90.9824C131.197 90.9754 131.19 90.9684 131.184 90.9614L145.326 105.104C145.333 105.11 145.339 105.118 145.346 105.125L131.204 90.9824Z" fill="black"/>
<path fill-rule="evenodd" clip-rule="evenodd" d="M131.184 90.9614C130.504 90.2716 129.585 89.9267 128.425 89.9267C127.254 89.9267 126.328 90.2786 125.647 90.9824C124.967 91.6862 124.627 92.5132 124.627 93.4633C124.627 94.4135 124.967 95.2405 125.647 95.9443L139.789 110.086C139.109 109.383 138.769 108.556 138.769 107.605C138.769 106.655 139.109 105.828 139.789 105.125C140.47 104.421 141.396 104.069 142.567 104.069C143.727 104.069 144.647 104.414 145.326 105.104L131.184 90.9614Z" fill="black"/>
<path fill-rule="evenodd" clip-rule="evenodd" d="M125.647 95.9443C125.654 95.9513 125.661 95.9583 125.668 95.9653L139.81 110.107C139.803 110.1 139.796 110.093 139.789 110.086L125.647 95.9443Z" fill="black"/>
<path fill-rule="evenodd" clip-rule="evenodd" d="M125.668 95.9653C126.347 96.6551 127.266 97 128.425 97C129.597 97 130.523 96.6481 131.204 95.9443C131.884 95.2405 132.224 94.4135 132.224 93.4633C132.224 92.5132 131.884 91.6862 131.204 90.9824L145.346 105.125C146.026 105.828 146.366 106.655 146.366 107.605C146.366 108.556 146.026 109.383 145.346 110.086C144.665 110.79 143.739 111.142 142.567 111.142C141.408 111.142 140.489 110.797 139.81 110.107L125.668 95.9653Z" fill="black"/>
<path fill-rule="evenodd" clip-rule="evenodd" d="M25.2211 75.1466H31.0043C32.365 75.1466 33.6502 75.0586 34.8597 74.8827C36.0693 74.7067 37.1087 74.39 37.9781 73.9326C38.8853 73.4751 39.5845 72.8768 40.0759 72.1378C40.6051 71.3988 40.8697 70.4663 40.8697 69.3402C40.8697 68.2845 40.6051 67.4047 40.0759 66.7009C39.9277 66.494 39.7633 66.2995 39.5825 66.1174L53.7246 80.2595C53.9054 80.4416 54.0699 80.6361 54.218 80.843C54.7472 81.5468 55.0118 82.4266 55.0118 83.4823C55.0118 84.6084 54.7472 85.5409 54.218 86.2799C53.7266 87.0189 53.0274 87.6172 52.1202 88.0747C51.2508 88.5321 50.2114 88.8488 49.0018 89.0248C47.7923 89.2007 46.5071 89.2887 45.1464 89.2887H39.3632L25.2211 75.1466Z" fill="black"/>
<path fill-rule="evenodd" clip-rule="evenodd" d="M39.5825 66.1174C39.1177 65.6491 38.5451 65.263 37.8647 64.9589C36.9576 64.5015 35.8803 64.1672 34.6329 63.956C33.3856 63.7449 32.0627 63.6393 30.6641 63.6393C29.2656 63.6393 28.1694 63.6569 27.3757 63.6921C26.5819 63.7273 25.8637 63.7801 25.2211 63.8504V75.1466L39.3632 89.2887V77.9925C40.0058 77.9222 40.724 77.8694 41.5178 77.8342C42.3115 77.799 43.4077 77.7814 44.8062 77.7814C46.2048 77.7814 47.5277 77.887 48.775 78.0981C50.0224 78.3093 51.0997 78.6436 52.0068 79.101C52.6872 79.4051 53.2598 79.7913 53.7246 80.2595L39.5825 66.1174Z" fill="black"/>
<path fill-rule="evenodd" clip-rule="evenodd" d="M25.2211 92.1437C25.6369 92.1789 26.1283 92.2141 26.6953 92.2493C27.1867 92.2845 27.7536 92.3196 28.3962 92.3548H30.7208C32.3461 92.3548 33.877 92.2669 35.3133 92.0909C36.7875 91.8798 38.0726 91.5279 39.1688 91.0352C40.2649 90.5425 41.1343 89.8563 41.7768 88.9765C42.4572 88.0968 42.7974 86.9883 42.7974 85.651C42.7974 84.4546 42.5517 83.4516 42.0603 82.6422C41.849 82.2791 41.5958 81.9484 41.3007 81.6503L55.4428 95.7925C55.738 96.0906 55.9912 96.4212 56.2024 96.7843C56.6938 97.5937 56.9395 98.5967 56.9395 99.7931C56.9395 101.13 56.5993 102.239 55.9189 103.119C55.2764 103.998 54.407 104.685 53.3109 105.177C52.2147 105.67 50.9296 106.022 49.4554 106.233C48.0191 106.409 46.4882 106.497 44.8629 106.497H42.5383C41.8957 106.462 41.3288 106.427 40.8374 106.391C40.2704 106.356 39.779 106.321 39.3632 106.286L25.2211 92.1437Z" fill="black"/>
<path fill-rule="evenodd" clip-rule="evenodd" d="M41.3007 81.6503C40.9094 81.2552 40.4445 80.9172 39.9058 80.6364C38.9987 80.1437 37.9025 79.7918 36.6174 79.5807C35.3322 79.3695 33.8959 79.2639 32.3083 79.2639H25.2211V92.1437L39.3632 106.286V93.406H46.4504C48.038 93.406 49.4743 93.5116 50.7595 93.7228C52.0446 93.9339 53.1408 94.2858 54.0479 94.7785C54.5866 95.0593 55.0516 95.3973 55.4428 95.7925L41.3007 81.6503Z" fill="black"/>
<path fill-rule="evenodd" clip-rule="evenodd" d="M111.22 84.2258C110.842 84.0499 110.218 83.9091 109.349 83.8035C108.517 83.6628 107.497 83.5924 106.287 83.5924C105.493 83.5924 104.643 83.6452 103.736 83.7507C102.866 83.8563 102.054 84.085 101.298 84.437C100.58 84.7537 99.9749 85.2111 99.4835 85.8094C98.9921 86.3724 98.7464 87.129 98.7464 88.0792C98.7464 89.434 99.105 90.4759 99.8223 91.2048L113.964 105.347C113.247 104.618 112.889 103.576 112.889 102.221C112.889 101.271 113.134 100.515 113.626 99.9515C114.117 99.3532 114.722 98.8958 115.44 98.5791C116.196 98.2271 117.008 97.9984 117.878 97.8928C118.785 97.7873 119.635 97.7345 120.429 97.7345C121.639 97.7345 122.659 97.8049 123.491 97.9456C124.36 98.0512 124.984 98.192 125.362 98.3679L111.22 84.2258Z" fill="black"/>
<path fill-rule="evenodd" clip-rule="evenodd" d="M99.8223 91.2048C100.037 91.4225 100.283 91.6123 100.561 91.7742C101.77 92.4428 103.415 92.7771 105.493 92.7771C106.741 92.7771 107.837 92.7595 108.782 92.7243C109.765 92.654 110.577 92.5484 111.22 92.4076V84.2258L125.362 98.3679V106.55C124.719 106.691 123.907 106.796 122.924 106.866C121.979 106.902 120.883 106.919 119.635 106.919C117.557 106.919 115.912 106.585 114.703 105.916C114.425 105.754 114.179 105.565 113.964 105.347L99.8223 91.2048Z" fill="black"/>
<path fill-rule="evenodd" clip-rule="evenodd" d="M19.7782 95.7331V60.261C20.5341 60.085 21.3657 59.9443 22.2729 59.8387C23.18 59.7331 24.0872 59.6452 24.9944 59.5748C25.9393 59.5044 26.8654 59.4516 27.7725 59.4164C28.6797 59.3812 29.5302 59.3636 30.3239 59.3636C32.5918 59.3636 34.7085 59.522 36.6741 59.8387C38.6774 60.1554 40.3972 60.7009 41.8335 61.4751C42.777 61.9481 43.5888 62.5219 44.2691 63.1967L58.4112 77.3388C57.731 76.664 56.9191 76.0902 55.9756 75.6172C54.5393 74.843 52.8195 74.2975 50.8162 73.9808C48.8506 73.6641 46.7339 73.5057 44.466 73.5057C43.6723 73.5057 42.8218 73.5233 41.9146 73.5585C41.0075 73.5937 40.0814 73.6465 39.1365 73.7169C38.2293 73.7873 37.3221 73.8752 36.415 73.9808C35.5078 74.0864 34.6762 74.2271 33.9203 74.4031V109.875L19.7782 95.7331Z" fill="black"/>
<path fill-rule="evenodd" clip-rule="evenodd" d="M44.2691 63.1967C44.6517 63.5762 44.9927 63.9877 45.2921 64.4311C46.1237 65.6628 46.5394 67.1759 46.5394 68.9707C46.5394 70.9765 46.0292 72.6305 45.0086 73.9326C43.988 75.1994 42.6273 76.1496 40.9264 76.783L55.0685 90.9251C56.7694 90.2917 58.1301 89.3415 59.1507 88.0747C60.1713 86.7726 60.6815 85.1186 60.6815 83.1128C60.6815 81.318 60.2658 79.8049 59.4342 78.5732C59.1349 78.1298 58.7939 77.7183 58.4112 77.3388L44.2691 63.1967Z" fill="black"/>
<path fill-rule="evenodd" clip-rule="evenodd" d="M40.9264 76.783C43.209 77.4101 45.0286 78.3994 46.385 79.7507L60.5272 93.8929C59.1707 92.5415 57.3512 91.5522 55.0685 90.9251L40.9264 76.783Z" fill="black"/>
<path fill-rule="evenodd" clip-rule="evenodd" d="M46.385 79.7507C46.3987 79.7644 46.4124 79.7781 46.426 79.7918L60.5681 93.9339C60.5545 93.9202 60.5409 93.9065 60.5272 93.8929L46.385 79.7507Z" fill="black"/>
<path fill-rule="evenodd" clip-rule="evenodd" d="M46.426 79.7918C47.7868 81.1642 48.4672 83.0997 48.4672 85.5982C48.4672 89.2581 47.0119 92.0205 44.1014 93.8856C41.2288 95.7155 36.6552 96.6305 30.3806 96.6305C29.5869 96.6305 28.7175 96.6129 27.7725 96.5777C26.8654 96.5425 25.9393 96.4897 24.9944 96.4194C24.0872 96.349 23.18 96.261 22.2729 96.1554C21.3657 96.0499 20.5341 95.9091 19.7782 95.7331L33.9203 109.875C34.6762 110.051 35.5078 110.192 36.415 110.298C37.3221 110.403 38.2293 110.491 39.1365 110.562C40.0814 110.632 41.0075 110.685 41.9146 110.72C42.8596 110.755 43.729 110.773 44.5227 110.773C50.7973 110.773 55.3709 109.858 58.2435 108.028C61.154 106.163 62.6093 103.4 62.6093 99.7403C62.6093 97.2418 61.9289 95.3063 60.5681 93.9339L46.426 79.7918Z" fill="black"/>
<path fill-rule="evenodd" clip-rule="evenodd" d="M25.2211 92.1437V79.2639H32.3083C33.8959 79.2639 35.3322 79.3695 36.6174 79.5807C37.9025 79.7918 38.9987 80.1437 39.9058 80.6364C40.435 80.9123 40.8931 81.2433 41.28 81.6296L55.4222 95.7717C55.0352 95.3855 54.5771 95.0544 54.0479 94.7785C53.1408 94.2858 52.0446 93.9339 50.7595 93.7228C49.4743 93.5116 48.038 93.406 46.4504 93.406H39.3632V106.286L25.2211 92.1437Z" fill="black"/>
<path fill-rule="evenodd" clip-rule="evenodd" d="M41.28 81.6296C41.584 81.9331 41.8441 82.2706 42.0603 82.6422C42.5517 83.4516 42.7974 84.4546 42.7974 85.651C42.7974 86.9883 42.4572 88.0968 41.7768 88.9765C41.1343 89.8563 40.2649 90.5425 39.1688 91.0352C38.0726 91.5279 36.7875 91.8798 35.3133 92.0909C33.877 92.2669 32.3461 92.3548 30.7208 92.3548H28.3962C27.7536 92.3196 27.1867 92.2845 26.6953 92.2493C26.1283 92.2141 25.6369 92.1789 25.2211 92.1437L39.3632 106.286C39.779 106.321 40.2704 106.356 40.8374 106.391C41.3288 106.427 41.8957 106.462 42.5383 106.497H44.8629C46.4882 106.497 48.0191 106.409 49.4554 106.233C50.9296 106.022 52.2147 105.67 53.3109 105.177C54.407 104.685 55.2764 103.998 55.9189 103.119C56.5993 102.239 56.9395 101.13 56.9395 99.7931C56.9395 98.5967 56.6938 97.5937 56.2024 96.7843C55.9863 96.4128 55.7262 96.0752 55.4222 95.7717L41.28 81.6296Z" fill="black"/>
<path fill-rule="evenodd" clip-rule="evenodd" d="M25.2211 75.1466V63.8504C25.8637 63.7801 26.5819 63.7273 27.3757 63.6921C28.1694 63.6569 29.2656 63.6393 30.6641 63.6393C32.0627 63.6393 33.3856 63.7449 34.6329 63.956C35.8803 64.1672 36.9576 64.5015 37.8647 64.9589C38.5357 65.2587 39.1018 65.6384 39.5631 66.0979L53.7052 80.24C53.2439 79.7806 52.6778 79.4009 52.0068 79.101C51.0997 78.6436 50.0224 78.3093 48.775 78.0981C47.5277 77.887 46.2048 77.7814 44.8062 77.7814C43.4077 77.7814 42.3115 77.799 41.5178 77.8342C40.724 77.8694 40.0058 77.9222 39.3632 77.9925V89.2887L25.2211 75.1466Z" fill="black"/>
<path fill-rule="evenodd" clip-rule="evenodd" d="M39.5631 66.0979C39.7515 66.2856 39.9224 66.4866 40.0759 66.7009C40.6051 67.4047 40.8697 68.2845 40.8697 69.3402C40.8697 70.4663 40.6051 71.3988 40.0759 72.1378C39.5845 72.8768 38.8853 73.4751 37.9781 73.9326C37.1087 74.39 36.0693 74.7067 34.8597 74.8827C33.6502 75.0586 32.365 75.1466 31.0043 75.1466H25.2211L39.3632 89.2887H45.1464C46.5071 89.2887 47.7923 89.2007 49.0018 89.0248C50.2114 88.8488 51.2508 88.5321 52.1202 88.0747C53.0274 87.6172 53.7266 87.0189 54.218 86.2799C54.7472 85.5409 55.0118 84.6084 55.0118 83.4823C55.0118 82.4266 54.7472 81.5468 54.218 80.843C54.0646 80.6287 53.8936 80.4277 53.7052 80.24L39.5631 66.0979Z" fill="black"/>
<path fill-rule="evenodd" clip-rule="evenodd" d="M62.8701 16.8446C63.5505 18.0059 64.3254 19.4487 65.1947 21.173C66.1019 22.8622 67.0279 24.7097 67.9729 26.7155C68.9557 28.6862 69.9195 30.7097 70.8645 32.7859C71.8094 34.8622 72.6977 36.8153 73.5293 38.6452L87.6714 52.7873C86.8398 50.9574 85.9515 49.0043 85.0066 46.928C84.0616 44.8518 83.0978 42.8283 82.115 40.8576C81.17 38.8518 80.244 37.0043 79.3368 35.3151C78.4675 33.5908 77.6926 32.148 77.0122 30.9867L62.8701 16.8446Z" fill="black"/>
<path fill-rule="evenodd" clip-rule="evenodd" d="M73.5293 38.6452C74.3608 36.8153 75.2491 34.8622 76.1941 32.7859C77.139 30.7097 78.084 28.6862 79.0289 26.7155C80.0117 24.7097 80.9378 22.8622 81.8071 21.173C82.7143 19.4487 83.508 18.0059 84.1884 16.8446H92.2395L106.382 30.9867H98.3305C97.6501 32.148 96.8564 33.5908 95.9492 35.3151C95.0799 37.0043 94.1538 38.8518 93.171 40.8576C92.2261 42.8283 91.2811 44.8518 90.3362 46.928C89.3912 49.0043 88.5029 50.9574 87.6714 52.7873L73.5293 38.6452Z" fill="black"/>
<path fill-rule="evenodd" clip-rule="evenodd" d="M92.2395 16.8446C92.6175 19.2727 92.9576 22 93.26 25.0264C93.6002 28.0176 93.8837 31.1496 94.1105 34.4223C94.3751 37.6598 94.6019 40.915 94.7909 44.1877C95.0176 47.4604 95.2066 50.5396 95.3578 53.4252H86.7398L100.882 67.5673H109.5C109.349 64.6817 109.16 61.6025 108.933 58.3298C108.744 55.0571 108.517 51.8019 108.253 48.5644C108.026 45.2917 107.742 42.1597 107.402 39.1685C107.1 36.1421 106.76 33.4148 106.382 30.9867L92.2395 16.8446Z" fill="black"/>
<path fill-rule="evenodd" clip-rule="evenodd" d="M86.7398 53.4252C86.6264 49.871 86.4752 46 86.2862 41.8123C86.0972 37.6246 85.8137 33.4018 85.4358 29.1437L99.5779 43.2858C99.9558 47.5439 100.239 51.7667 100.428 55.9544C100.617 60.1421 100.769 64.0131 100.882 67.5673L86.7398 53.4252Z" fill="black"/>
<path fill-rule="evenodd" clip-rule="evenodd" d="M85.4358 29.1437C84.7554 30.6217 83.9994 32.2581 83.1679 34.0528L80.6732 39.437C79.8794 41.2317 79.1045 42.956 78.3486 44.61C77.5926 46.2287 76.95 47.6188 76.4208 48.7801H70.2408L84.3829 62.9222H90.5629C91.0921 61.7609 91.7347 60.3708 92.4907 58.7521C93.2466 57.0981 94.0215 55.3738 94.8153 53.5791L97.31 48.1949C98.1415 46.4002 98.8975 44.7638 99.5779 43.2858L85.4358 29.1437Z" fill="black"/>
<path fill-rule="evenodd" clip-rule="evenodd" d="M70.2408 48.7801C69.7116 47.6188 69.0691 46.2287 68.3131 44.61C67.5571 42.956 66.7634 41.2317 65.9318 39.437C65.138 37.6422 64.3254 35.8475 63.4938 34.0528C62.6622 32.2581 61.9063 30.6217 61.2259 29.1437L75.368 43.2858C76.0484 44.7638 76.8043 46.4002 77.6359 48.1949C78.4675 49.9896 79.2801 51.7843 80.0739 53.5791C80.9055 55.3738 81.6992 57.0981 82.4552 58.7521C83.2112 60.3708 83.8537 61.7609 84.3829 62.9222L70.2408 48.7801Z" fill="black"/>
<path fill-rule="evenodd" clip-rule="evenodd" d="M61.2259 29.1437C60.8479 33.4018 60.5644 37.6246 60.3754 41.8123C60.1864 46 60.0352 49.871 59.9218 53.4252H51.3038L65.4459 67.5673H74.0639C74.1773 64.0131 74.3285 60.1421 74.5175 55.9544C74.7065 51.7667 74.99 47.5439 75.368 43.2858L61.2259 29.1437Z" fill="black"/>
<path fill-rule="evenodd" clip-rule="evenodd" d="M51.3038 53.4252C51.455 50.5396 51.6251 47.4604 51.8141 44.1877C52.0409 40.915 52.2677 37.6598 52.4945 34.4223C52.759 31.1496 53.0425 28.0176 53.3449 25.0264C53.6851 22 54.0442 19.2727 54.4222 16.8446H62.8701L77.0122 30.9867H68.5643C68.1863 33.4148 67.8272 36.1421 67.487 39.1685C67.1846 42.1597 66.9011 45.2917 66.6366 48.5644C66.4098 51.8019 66.183 55.0571 65.9562 58.3298C65.7672 61.6025 65.5971 64.6817 65.4459 67.5673L51.3038 53.4252Z" fill="black"/>
<path fill-rule="evenodd" clip-rule="evenodd" d="M126.511 53.4252C125.717 52.2287 124.772 50.9443 123.676 49.5718C122.618 48.1642 121.446 46.7742 120.161 45.4018L134.303 59.5439C135.588 60.9163 136.76 62.3063 137.818 63.7139C138.914 65.0864 139.859 66.3708 140.653 67.5673L126.511 53.4252Z" fill="black"/>
<path fill-rule="evenodd" clip-rule="evenodd" d="M120.161 45.4018C119.375 44.5149 118.566 43.6561 117.736 42.8251L131.878 56.9673C132.708 57.7982 133.517 58.6571 134.303 59.5439L120.161 45.4018Z" fill="black"/>
<path fill-rule="evenodd" clip-rule="evenodd" d="M117.736 42.8251C117.248 42.3371 116.752 41.8588 116.249 41.39L130.391 55.5321C130.894 56.0009 131.39 56.4793 131.878 56.9673L117.736 42.8251Z" fill="black"/>
<path fill-rule="evenodd" clip-rule="evenodd" d="M116.249 41.39C114.888 40.088 113.527 38.9443 112.166 37.9589V53.4252H103.322L117.464 67.5673H126.308V52.101C127.669 53.0864 129.03 54.2301 130.391 55.5321L116.249 41.39Z" fill="black"/>
<path fill-rule="evenodd" clip-rule="evenodd" d="M103.322 53.4252V16.8446H112.166L126.308 30.9867H117.464V67.5673L103.322 53.4252Z" fill="black"/>
<path fill-rule="evenodd" clip-rule="evenodd" d="M112.166 16.8446V30.6745L126.308 44.8166V30.9867L112.166 16.8446Z" fill="black"/>
<path fill-rule="evenodd" clip-rule="evenodd" d="M112.166 30.6745C114.472 28.4223 116.778 26.0821 119.084 23.654C121.427 21.1906 123.6 18.9208 125.604 16.8446H136.093L150.235 30.9867H139.746C137.742 33.0629 135.569 35.3327 133.226 37.7961C130.92 40.2242 128.614 42.5644 126.308 44.8166L112.166 30.6745Z" fill="black"/>
<path fill-rule="evenodd" clip-rule="evenodd" d="M136.093 16.8446C133.409 19.8006 130.707 22.651 127.985 25.3959C125.301 28.1408 122.467 30.9032 119.48 33.6833L133.622 47.8254C136.609 45.0453 139.443 42.2829 142.127 39.538C144.849 36.7931 147.551 33.9427 150.235 30.9867L136.093 16.8446Z" fill="black"/>
<path fill-rule="evenodd" clip-rule="evenodd" d="M119.48 33.6833C121.426 35.1887 123.327 36.87 125.185 38.7272L139.327 52.8694C137.469 51.0122 135.568 49.3309 133.622 47.8254L119.48 33.6833Z" fill="black"/>
<path fill-rule="evenodd" clip-rule="evenodd" d="M125.185 38.7272C126.324 39.8655 127.446 41.0698 128.552 42.3402L142.694 56.4823C141.588 55.212 140.466 54.0076 139.327 52.8694L125.185 38.7272Z" fill="black"/>
<path fill-rule="evenodd" clip-rule="evenodd" d="M128.552 42.3402C131.5 45.6833 134.316 49.3783 137 53.4252H126.511L140.653 67.5673H151.142C148.458 63.5204 145.642 59.8254 142.694 56.4823L128.552 42.3402Z" fill="black"/>
<path fill-rule="evenodd" clip-rule="evenodd" d="M56.0407 63.0587C56.7211 63.6217 57.5338 63.9032 58.4787 63.9032C59.4237 63.9032 60.2174 63.6217 60.86 63.0587C61.5404 62.4604 61.8806 61.6686 61.8806 60.6833C61.8806 59.8063 61.6111 59.0967 61.0722 58.5542L75.2143 72.6963C75.7533 73.2388 76.0227 73.9484 76.0227 74.8254C76.0227 75.8107 75.6825 76.6025 75.0021 77.2008C74.3595 77.7638 73.5658 78.0453 72.6208 78.0453C71.6759 78.0453 70.8632 77.7638 70.1828 77.2008L56.0407 63.0587Z" fill="black"/>
<path fill-rule="evenodd" clip-rule="evenodd" d="M61.0722 58.5542C61.0056 58.4871 60.9349 58.4226 60.86 58.3607L75.0021 72.5028C75.077 72.5648 75.1477 72.6293 75.2143 72.6963L61.0722 58.5542Z" fill="black"/>
<path fill-rule="evenodd" clip-rule="evenodd" d="M60.86 58.3607C60.2174 57.7625 59.4237 57.4633 58.4787 57.4633C57.5338 57.4633 56.7211 57.7625 56.0407 58.3607C55.3981 58.9238 55.0769 59.6979 55.0769 60.6833C55.0769 61.6193 55.3668 62.3807 55.9467 62.9675L70.0889 77.1096C69.5089 76.5229 69.219 75.7615 69.219 74.8254C69.219 73.84 69.5402 73.0659 70.1828 72.5028C70.8632 71.9046 71.6759 71.6054 72.6208 71.6054C73.5658 71.6054 74.3595 71.9046 75.0021 72.5028L60.86 58.3607Z" fill="black"/>
<path fill-rule="evenodd" clip-rule="evenodd" d="M55.9467 62.9675C55.9773 62.9984 56.0086 63.0288 56.0407 63.0587L70.1828 77.2008C70.1507 77.1709 70.1194 77.1405 70.0889 77.1096L55.9467 62.9675Z" fill="black"/>
<path fill-rule="evenodd" clip-rule="evenodd" d="M82.4663 87.0772C82.297 86.9077 82.1051 86.749 81.8908 86.6012C80.8703 85.8974 79.1882 85.1056 76.8447 84.2258C75.7108 83.8035 74.6146 83.3812 73.5563 82.9589C72.5357 82.5015 71.6475 81.9736 70.8915 81.3754C70.6798 81.2079 70.48 81.0307 70.292 80.8439L84.4342 94.986C84.6221 95.1728 84.822 95.35 85.0336 95.5175C85.7896 96.1157 86.6778 96.6436 87.6984 97.101C88.7567 97.5233 89.8529 97.9456 90.9868 98.3679C93.3303 99.2477 95.0124 100.04 96.0329 100.743C96.2473 100.891 96.4391 101.05 96.6084 101.219L82.4663 87.0772Z" fill="black"/>
<path fill-rule="evenodd" clip-rule="evenodd" d="M70.292 80.8439C69.8087 80.3635 69.4038 79.8192 69.0772 79.2111C68.6236 78.3666 68.3968 77.3284 68.3968 76.0968C68.3968 73.6686 69.3607 71.7507 71.2884 70.3431C73.2161 68.9003 75.8431 68.1789 79.1693 68.1789C80.0009 68.1789 80.8325 68.2317 81.664 68.3372C82.4956 68.4076 83.2705 68.5132 83.9886 68.654C84.7068 68.7595 85.3305 68.8827 85.8597 69.0235C86.4266 69.1642 86.8613 69.2874 87.1637 69.393L101.306 83.5351C101.003 83.4295 100.569 83.3063 100.002 83.1656C99.4726 83.0248 98.8489 82.9016 98.1307 82.7961C97.4126 82.6553 96.6377 82.5497 95.8061 82.4793C94.9746 82.3738 94.143 82.321 93.3114 82.321C89.9852 82.321 87.3582 83.0424 85.4305 84.4852C83.5028 85.8928 82.5389 87.8107 82.5389 90.2389C82.5389 91.4705 82.7657 92.5087 83.2193 93.3532C83.5459 93.9613 83.9509 94.5056 84.4342 94.986L70.292 80.8439Z" fill="black"/>
<path fill-rule="evenodd" clip-rule="evenodd" d="M87.1637 69.393L86.1999 73.6158C85.6329 73.3343 84.7446 73.0528 83.5351 72.7713C82.3255 72.4545 80.8703 72.2962 79.1693 72.2962C77.6952 72.2962 76.4101 72.5777 75.3139 73.1408C74.2178 73.6686 73.6697 74.5132 73.6697 75.6745C73.6697 76.2727 73.7831 76.8006 74.0099 77.2581C74.1793 77.5509 74.395 77.8292 74.6572 78.0932L88.7994 92.2353C88.5371 91.9714 88.3214 91.693 88.152 91.4002C87.9252 90.9427 87.8118 90.4148 87.8118 89.8166C87.8118 88.6553 88.3599 87.8107 89.456 87.2829C90.5522 86.7198 91.8373 86.4383 93.3114 86.4383C95.0124 86.4383 96.4676 86.5966 97.6772 86.9134C98.8867 87.1949 99.775 87.4764 100.342 87.7579L101.306 83.5351L87.1637 69.393Z" fill="black"/>
<path fill-rule="evenodd" clip-rule="evenodd" d="M74.6572 78.0932C74.8047 78.2416 74.9669 78.3855 75.1438 78.5249C75.673 78.8768 76.3156 79.2111 77.0715 79.5279C77.8275 79.8446 78.7347 80.1789 79.793 80.5308C81.1916 81.0235 82.4389 81.5161 83.5351 82.0088C84.6312 82.4663 85.5573 83.0117 86.3132 83.6452L100.455 97.7873C99.6994 97.1538 98.7733 96.6084 97.6772 96.1509C96.581 95.6582 95.3337 95.1656 93.9351 94.6729C92.8768 94.321 91.9696 93.9867 91.2136 93.67C90.4577 93.3532 89.8151 93.0189 89.2859 92.667C89.109 92.5277 88.9468 92.3838 88.7993 92.2353L74.6572 78.0932Z" fill="black"/>
<path fill-rule="evenodd" clip-rule="evenodd" d="M86.3132 83.6452C86.5037 83.7972 86.6833 83.9573 86.8521 84.1256L100.994 98.2677C100.825 98.0995 100.646 97.9394 100.455 97.7873L86.3132 83.6452Z" fill="black"/>
<path fill-rule="evenodd" clip-rule="evenodd" d="M86.8521 84.1256C87.3864 84.6583 87.8116 85.2724 88.1276 85.9677C88.5433 86.8475 88.7512 87.9384 88.7512 89.2405C88.7512 91.7742 87.7307 93.6921 85.6896 94.9941C83.6863 96.2962 80.8136 96.9472 77.0715 96.9472C74.4634 96.9472 72.4223 96.7361 70.9482 96.3138C69.4741 95.9267 68.4724 95.6276 67.9432 95.4164L82.0853 109.559C82.6145 109.77 83.6162 110.069 85.0903 110.456C86.5644 110.878 88.6055 111.089 91.2136 111.089C94.9557 111.089 97.8284 110.438 99.8317 109.136C101.873 107.834 102.893 105.916 102.893 103.383C102.893 102.081 102.685 100.99 102.27 100.11C101.954 99.4145 101.529 98.8005 100.994 98.2677L86.8521 84.1256Z" fill="black"/>
<path fill-rule="evenodd" clip-rule="evenodd" d="M67.9432 95.4164L68.9071 91.1936C69.5119 91.4047 70.4757 91.7214 71.7987 92.1437C73.1216 92.566 74.8792 92.7771 77.0715 92.7771C79.226 92.7771 80.8136 92.5132 81.8341 91.9853C82.8925 91.4575 83.4217 90.6129 83.4217 89.4516C83.4217 88.5064 83.1032 87.7149 82.4663 87.0772L96.6084 101.219C97.2454 101.857 97.5638 102.648 97.5638 103.594C97.5638 104.755 97.0346 105.6 95.9762 106.127C94.9557 106.655 93.3681 106.919 91.2136 106.919C89.0213 106.919 87.2637 106.708 85.9408 106.286C84.6178 105.864 83.654 105.547 83.0492 105.336L82.0853 109.559L67.9432 95.4164Z" fill="black"/>
<path fill-rule="evenodd" clip-rule="evenodd" d="M113.67 70.9112C113.744 70.9843 113.815 71.0589 113.885 71.1349L128.027 85.277C127.958 85.201 127.886 85.1265 127.813 85.0534L113.67 70.9112Z" fill="black"/>
<path fill-rule="evenodd" clip-rule="evenodd" d="M113.885 71.1349C114.792 72.0499 115.434 73.1584 115.812 74.4604C116.19 75.7273 116.379 77.1349 116.379 78.6833V95.8387C115.926 95.9091 115.283 96.0147 114.452 96.1554C113.658 96.261 112.751 96.3666 111.73 96.4721C110.71 96.5777 109.595 96.6657 108.385 96.7361C107.213 96.8416 106.041 96.8944 104.87 96.8944C103.207 96.8944 101.676 96.7361 100.277 96.4194C98.8787 96.1026 97.6691 95.61 96.6486 94.9414C96.2812 94.688 95.9432 94.4072 95.6346 94.0991L109.777 108.241C110.085 108.549 110.423 108.83 110.791 109.084C111.811 109.752 113.021 110.245 114.419 110.562C115.818 110.878 117.349 111.037 119.012 111.037C120.183 111.037 121.355 110.984 122.527 110.878C123.737 110.808 124.852 110.72 125.872 110.614C126.893 110.509 127.8 110.403 128.594 110.298C129.425 110.157 130.068 110.051 130.521 109.981V92.8254C130.521 91.277 130.332 89.8694 129.954 88.6025C129.576 87.3005 128.934 86.192 128.027 85.277L113.885 71.1349Z" fill="black"/>
<path fill-rule="evenodd" clip-rule="evenodd" d="M95.6346 94.0991C95.0859 93.5514 94.6302 92.9172 94.2673 92.1965C93.7003 91.0704 93.4168 89.7155 93.4168 88.132C93.4168 86.6188 93.7381 85.3167 94.3807 84.2258C95.0611 83.1349 95.9682 82.2551 97.1022 81.5865C98.2361 80.9179 99.5591 80.4252 101.071 80.1085C102.583 79.7918 104.17 79.6334 105.834 79.6334C106.363 79.6334 106.911 79.6686 107.478 79.739C108.045 79.7742 108.574 79.8446 109.065 79.9501C109.595 80.0205 110.048 80.0909 110.426 80.1613C110.804 80.2317 111.069 80.2845 111.22 80.3196V78.9472C111.22 78.1378 111.125 77.346 110.936 76.5719C110.747 75.7625 110.407 75.0587 109.916 74.4604C109.813 74.3274 109.701 74.2006 109.581 74.08L123.723 88.2221C123.843 88.3427 123.955 88.4695 124.058 88.6025C124.549 89.2008 124.889 89.9046 125.078 90.714C125.267 91.4881 125.362 92.2799 125.362 93.0893V94.4617C125.211 94.4266 124.946 94.3738 124.568 94.3034C124.19 94.233 123.737 94.1626 123.207 94.0922C122.716 93.9867 122.187 93.9163 121.62 93.8811C121.053 93.8107 120.505 93.7755 119.976 93.7755C118.312 93.7755 116.725 93.9339 115.213 94.2506C113.701 94.5673 112.378 95.06 111.244 95.7286C110.11 96.3972 109.203 97.277 108.523 98.3679C107.88 99.4588 107.559 100.761 107.559 102.274C107.559 103.858 107.842 105.213 108.409 106.339C108.772 107.059 109.228 107.694 109.777 108.241L95.6346 94.0991Z" fill="black"/>
<path fill-rule="evenodd" clip-rule="evenodd" d="M109.581 74.08C109.13 73.6263 108.562 73.2604 107.875 72.9824C107.043 72.5953 105.947 72.4018 104.586 72.4018C102.848 72.4018 101.317 72.5249 99.9938 72.7713C98.7086 72.9824 97.7447 73.2111 97.1022 73.4575L111.244 87.5996C111.887 87.3532 112.851 87.1245 114.136 86.9134C115.459 86.667 116.99 86.5439 118.728 86.5439C120.089 86.5439 121.185 86.7374 122.017 87.1245C122.704 87.4025 123.272 87.7684 123.723 88.2221L109.581 74.08Z" fill="black"/>
<path fill-rule="evenodd" clip-rule="evenodd" d="M97.1022 73.4575L96.4785 69.393C97.1589 69.1114 98.2928 68.8475 99.8804 68.6012C101.468 68.3196 103.188 68.1789 105.04 68.1789C107.157 68.1789 108.933 68.4428 110.369 68.9707C111.726 69.4239 112.826 70.0707 113.67 70.9112L127.813 85.0534C126.968 84.2129 125.868 83.566 124.511 83.1128C123.075 82.5849 121.299 82.321 119.182 82.321C117.33 82.321 115.61 82.4617 114.023 82.7433C112.435 82.9896 111.301 83.2535 110.621 83.5351L111.244 87.5996L97.1022 73.4575Z" fill="black"/>
<path fill-rule="evenodd" clip-rule="evenodd" d="M126.781 84.912C126.441 82.5191 126.157 80.1261 125.931 77.7331C125.704 75.305 125.59 72.6129 125.59 69.6569V59.7331H131.26L145.402 73.8752H139.732V83.799C139.732 86.755 139.846 89.4471 140.073 91.8752C140.299 94.2682 140.583 96.6612 140.923 99.0541L126.781 84.912Z" fill="black"/>
<path fill-rule="evenodd" clip-rule="evenodd" d="M131.26 59.7331V69.6569C131.26 72.6129 131.147 75.305 130.92 77.7331C130.693 80.1261 130.41 82.5191 130.07 84.912H126.781L140.923 99.0541H144.212C144.552 96.6612 144.835 94.2682 145.062 91.8752C145.289 89.4471 145.402 86.755 145.402 83.799V73.8752L131.26 59.7331Z" fill="black"/>
<path fill-rule="evenodd" clip-rule="evenodd" d="M125.688 95.9861C125.674 95.9723 125.661 95.9584 125.647 95.9443L139.789 110.086C139.803 110.101 139.816 110.114 139.83 110.128L125.688 95.9861Z" fill="black"/>
<path fill-rule="evenodd" clip-rule="evenodd" d="M125.647 95.9443C124.967 95.2405 124.627 94.4135 124.627 93.4633C124.627 92.5132 124.967 91.6862 125.647 90.9824C126.328 90.2786 127.254 89.9267 128.425 89.9267C129.574 89.9267 130.486 90.2647 131.163 90.9406L145.305 105.083C144.628 104.407 143.716 104.069 142.567 104.069C141.396 104.069 140.47 104.421 139.789 105.125C139.109 105.828 138.769 106.655 138.769 107.605C138.769 108.556 139.109 109.383 139.789 110.086L125.647 95.9443Z" fill="black"/>
<path fill-rule="evenodd" clip-rule="evenodd" d="M131.163 90.9406C131.177 90.9544 131.19 90.9683 131.204 90.9824L145.346 105.125C145.333 105.11 145.319 105.097 145.305 105.083L131.163 90.9406Z" fill="black"/>
<path fill-rule="evenodd" clip-rule="evenodd" d="M131.204 90.9824C131.884 91.6862 132.224 92.5132 132.224 93.4633C132.224 94.4135 131.884 95.2405 131.204 95.9443C130.523 96.6481 129.597 97 128.425 97C127.277 97 126.365 96.662 125.688 95.9861L139.83 110.128C140.507 110.804 141.42 111.142 142.567 111.142C143.739 111.142 144.665 110.79 145.346 110.086C146.026 109.383 146.366 108.556 146.366 107.605C146.366 106.655 146.026 105.828 145.346 105.125L131.204 90.9824Z" fill="black"/>
<path fill-rule="evenodd" clip-rule="evenodd" d="M111.22 84.2258C110.842 84.0499 110.218 83.9091 109.349 83.8035C108.517 83.6628 107.497 83.5924 106.287 83.5924C105.493 83.5924 104.643 83.6452 103.736 83.7507C102.866 83.8563 102.054 84.085 101.298 84.437C100.58 84.7537 99.9749 85.2111 99.4835 85.8094C98.9921 86.3724 98.7464 87.129 98.7464 88.0792C98.7464 89.434 99.105 90.4759 99.8223 91.2048L113.964 105.347C113.247 104.618 112.889 103.576 112.889 102.221C112.889 101.271 113.134 100.515 113.626 99.9515C114.117 99.3532 114.722 98.8958 115.44 98.5791C116.196 98.2271 117.008 97.9984 117.878 97.8928C118.785 97.7873 119.635 97.7345 120.429 97.7345C121.639 97.7345 122.659 97.8049 123.491 97.9456C124.36 98.0512 124.984 98.192 125.362 98.3679L111.22 84.2258Z" fill="black"/>
<path fill-rule="evenodd" clip-rule="evenodd" d="M99.8223 91.2048C100.037 91.4225 100.283 91.6123 100.561 91.7742C101.77 92.4428 103.415 92.7771 105.493 92.7771C106.741 92.7771 107.837 92.7595 108.782 92.7243C109.765 92.654 110.577 92.5484 111.22 92.4076V84.2258L125.362 98.3679V106.55C124.719 106.691 123.907 106.796 122.924 106.866C121.979 106.902 120.883 106.919 119.635 106.919C117.557 106.919 115.912 106.585 114.703 105.916C114.425 105.754 114.179 105.565 113.964 105.347L99.8223 91.2048Z" fill="black"/>
<path fill-rule="evenodd" clip-rule="evenodd" d="M55.8706 96.3138V68.8651H61.1435L75.2856 83.0072H70.0127V110.456L55.8706 96.3138Z" fill="black"/>
<path fill-rule="evenodd" clip-rule="evenodd" d="M61.1435 68.8651V96.3138H55.8706L70.0127 110.456H75.2856V83.0072L61.1435 68.8651Z" fill="black"/>
<path fill-rule="evenodd" clip-rule="evenodd" d="M35.5371 41.0604C35.2987 40.8206 35.0162 40.5961 34.6896 40.3871C33.4801 39.5777 31.4012 38.7155 28.4529 37.8006C27.1678 37.3783 25.8826 36.9032 24.5975 36.3754C23.3123 35.8123 22.1595 35.1261 21.1389 34.3167C20.8838 34.1055 20.6405 33.8845 20.409 33.6536L34.5511 47.7957C34.7826 48.0266 35.0259 48.2477 35.281 48.4588C36.3016 49.2682 37.4544 49.9544 38.7396 50.5175C40.0247 51.0453 41.3099 51.5204 42.595 51.9427C45.5433 52.8576 47.6222 53.7198 48.8317 54.5292C49.1583 54.7383 49.4408 54.9627 49.6792 55.2025L35.5371 41.0604Z" fill="black"/>
<path fill-rule="evenodd" clip-rule="evenodd" d="M20.409 33.6536C19.7144 32.9607 19.1262 32.1789 18.6442 31.3079C18.0017 30.1114 17.6804 28.6686 17.6804 26.9795C17.6804 25.2903 18.0206 23.7771 18.7009 22.4399C19.3813 21.0674 20.3452 19.9062 21.5925 18.956C22.8399 18.0059 24.3518 17.2845 26.1283 16.7918C27.9048 16.2639 29.9081 16 32.1383 16C34.7841 16 37.0709 16.2639 38.9987 16.7918C40.9264 17.3197 42.5139 17.9003 43.7613 18.5337L57.9034 32.6758C56.656 32.0424 55.0685 31.4618 53.1408 30.9339C51.213 30.406 48.9262 30.1421 46.2804 30.1421C44.0502 30.1421 42.0469 30.406 40.2704 30.9339C38.4939 31.4266 36.982 32.148 35.7346 33.0981C34.4873 34.0483 33.5234 35.2095 32.843 36.582C32.1627 37.9192 31.8225 39.4324 31.8225 41.1216C31.8225 42.8107 32.1438 44.2535 32.7863 45.45C33.2683 46.321 33.8566 47.1029 34.5511 47.7957L20.409 33.6536Z" fill="black"/>
<path fill-rule="evenodd" clip-rule="evenodd" d="M43.7613 18.5337L41.2099 25.0264C40.1137 24.4985 38.8853 24.0411 37.5245 23.654C36.2016 23.2317 34.5951 23.0205 32.7052 23.0205C30.5885 23.0205 29.0577 23.3021 28.1127 23.8651C27.2056 24.393 26.752 25.2199 26.752 26.346C26.752 27.0147 26.9221 27.5777 27.2623 28.0352C27.3813 28.1953 27.5166 28.3511 27.6681 28.5026L41.8102 42.6448C41.6587 42.4933 41.5235 42.3375 41.4044 42.1773C41.0642 41.7198 40.8941 41.1568 40.8941 40.4881C40.8941 39.362 41.3477 38.5351 42.2548 38.0072C43.1998 37.4442 44.7306 37.1626 46.8473 37.1626C48.7372 37.1626 50.3437 37.3738 51.6666 37.7961C53.0274 38.1832 54.2558 38.6406 55.352 39.1685L57.9034 32.6758L43.7613 18.5337Z" fill="black"/>
<path fill-rule="evenodd" clip-rule="evenodd" d="M27.6681 28.5026C27.9494 28.784 28.2866 29.0505 28.6797 29.3021C29.3223 29.654 30.0404 29.9883 30.8342 30.305C31.6658 30.5865 32.5729 30.8856 33.5557 31.2023C35.5968 31.9062 37.3733 32.61 38.8853 33.3138C40.3972 33.9824 41.6446 34.7742 42.6273 35.6891L56.7694 49.8312C55.7867 48.9163 54.5393 48.1245 53.0274 47.4559C51.5154 46.7521 49.7389 46.0483 47.6978 45.3444C46.715 45.0277 45.8079 44.7286 44.9763 44.4471C44.1825 44.1304 43.4644 43.7961 42.8218 43.4442C42.4287 43.1926 42.0915 42.9261 41.8102 42.6448L27.6681 28.5026Z" fill="black"/>
<path fill-rule="evenodd" clip-rule="evenodd" d="M42.6273 35.6891C42.7498 35.7989 42.8684 35.911 42.9833 36.0253L57.1254 50.1675C57.0106 50.0531 56.8919 49.941 56.7694 49.8312L42.6273 35.6891Z" fill="black"/>
<path fill-rule="evenodd" clip-rule="evenodd" d="M42.9833 36.0253C43.8255 36.864 44.4628 37.8252 44.8952 38.9091C45.3866 40.1408 45.6323 41.6364 45.6323 43.3959C45.6323 46.8094 44.3471 49.4663 41.7768 51.3666C39.2066 53.2317 35.3322 54.1642 30.1538 54.1642C28.4151 54.1642 26.8465 54.0587 25.4479 53.8475C24.0494 53.6716 22.8021 53.4428 21.7059 53.1613C20.6475 52.8798 19.7215 52.5806 18.9277 52.2639C18.1717 51.9472 17.5292 51.6481 17 51.3666L31.1421 65.5087C31.6713 65.7902 32.3138 66.0893 33.0698 66.406C33.8636 66.7227 34.7896 67.0219 35.848 67.3034C36.9442 67.5849 38.1915 67.8137 39.59 67.9896C40.9886 68.2008 42.5572 68.3063 44.2959 68.3063C49.4743 68.3063 53.3487 67.3738 55.9189 65.5087C58.4892 63.6084 59.7744 60.9515 59.7744 57.538C59.7744 55.7785 59.5287 54.2829 59.0373 53.0512C58.6049 51.9673 57.9676 51.0061 57.1254 50.1675L42.9833 36.0253Z" fill="black"/>
<path fill-rule="evenodd" clip-rule="evenodd" d="M17 51.3666L19.4947 44.8211C20.6664 45.4194 22.1028 45.9648 23.8037 46.4575C25.5424 46.915 27.6591 47.1437 30.1538 47.1437C31.4012 47.1437 32.4217 47.0557 33.2155 46.8798C34.0471 46.6686 34.7085 46.4047 35.1999 46.088C35.6913 45.7361 36.0315 45.3314 36.2205 44.8739C36.4095 44.4164 36.504 43.9062 36.504 43.3431C36.504 42.4697 36.1817 41.7088 35.5371 41.0604L49.6792 55.2025C50.3238 55.8509 50.6461 56.6118 50.6461 57.4852C50.6461 58.0483 50.5516 58.5585 50.3626 59.016C50.1736 59.4735 49.8334 59.8782 49.342 60.2301C48.8506 60.5468 48.1892 60.8107 47.3576 61.0219C46.5638 61.1978 45.5433 61.2858 44.2959 61.2858C41.8012 61.2858 39.6845 61.0571 37.9458 60.5996C36.2449 60.1069 34.8085 59.5615 33.6368 58.9632L31.1421 65.5087L17 51.3666Z" fill="black"/>
<path d="M77.0715 92.7771C79.2261 92.7771 80.8136 92.5132 81.8341 91.9853C82.8925 91.4575 83.4217 90.6129 83.4217 89.4516C83.4217 88.2551 82.9114 87.305 81.8908 86.6012C80.8703 85.8974 79.1882 85.1056 76.8447 84.2258C75.7108 83.8035 74.6147 83.3812 73.5563 82.9589C72.5357 82.5015 71.6475 81.9736 70.8915 81.3754C70.1355 80.7771 69.5308 80.0557 69.0772 79.2111C68.6236 78.3666 68.3968 77.3284 68.3968 76.0968C68.3968 73.6686 69.3607 71.7507 71.2884 70.3431C73.2161 68.9003 75.8431 68.1789 79.1693 68.1789C80.0009 68.1789 80.8325 68.2317 81.664 68.3372C82.4956 68.4076 83.2705 68.5132 83.9886 68.654C84.7068 68.7595 85.3305 68.8827 85.8597 69.0235C86.4267 69.1642 86.8613 69.2874 87.1637 69.393L86.1999 73.6158C85.6329 73.3343 84.7446 73.0528 83.5351 72.7713C82.3255 72.4545 80.8703 72.2962 79.1693 72.2962C77.6952 72.2962 76.4101 72.5777 75.3139 73.1408C74.2178 73.6686 73.6697 74.5132 73.6697 75.6745C73.6697 76.2727 73.7831 76.8006 74.0099 77.2581C74.2745 77.7156 74.6524 78.1378 75.1438 78.5249C75.673 78.8768 76.3156 79.2111 77.0715 79.5279C77.8275 79.8446 78.7347 80.1789 79.793 80.5308C81.1916 81.0235 82.4389 81.5161 83.5351 82.0088C84.6312 82.4663 85.5573 83.0117 86.3132 83.6452C87.107 84.2786 87.7118 85.0528 88.1276 85.9677C88.5434 86.8475 88.7512 87.9384 88.7512 89.2405C88.7512 91.7742 87.7307 93.6921 85.6896 94.9941C83.6863 96.2962 80.8136 96.9472 77.0715 96.9472C74.4635 96.9472 72.4223 96.7361 70.9482 96.3138C69.4741 95.9267 68.4724 95.6276 67.9432 95.4164L68.9071 91.1936C69.5119 91.4047 70.4757 91.7214 71.7987 92.1437C73.1216 92.566 74.8792 92.7771 77.0715 92.7771Z" fill="#2400FF"/>
<path d="M105.493 92.7771C106.741 92.7771 107.837 92.7595 108.782 92.7243C109.765 92.654 110.577 92.5484 111.22 92.4076V84.2258C110.842 84.0499 110.218 83.9091 109.349 83.8035C108.517 83.6628 107.497 83.5924 106.287 83.5924C105.493 83.5924 104.643 83.6452 103.736 83.7507C102.866 83.8563 102.054 84.085 101.298 84.437C100.58 84.7537 99.9749 85.2111 99.4835 85.8094C98.9921 86.3724 98.7464 87.129 98.7464 88.0792C98.7464 89.8387 99.3512 91.0704 100.561 91.7742C101.77 92.4428 103.415 92.7771 105.493 92.7771ZM105.04 68.1789C107.157 68.1789 108.933 68.4428 110.369 68.9707C111.844 69.4633 113.015 70.1847 113.885 71.1349C114.792 72.0499 115.434 73.1584 115.812 74.4604C116.19 75.7273 116.379 77.1349 116.379 78.6833V95.8387C115.926 95.9091 115.283 96.0147 114.452 96.1554C113.658 96.261 112.751 96.3666 111.73 96.4721C110.71 96.5777 109.595 96.6657 108.385 96.7361C107.213 96.8416 106.041 96.8944 104.87 96.8944C103.207 96.8944 101.676 96.7361 100.277 96.4194C98.8787 96.1026 97.6692 95.61 96.6486 94.9414C95.628 94.2375 94.8343 93.3226 94.2673 92.1965C93.7003 91.0704 93.4168 89.7155 93.4168 88.132C93.4168 86.6188 93.7381 85.3167 94.3807 84.2258C95.0611 83.1349 95.9682 82.2551 97.1022 81.5865C98.2361 80.9179 99.5591 80.4252 101.071 80.1085C102.583 79.7918 104.17 79.6334 105.834 79.6334C106.363 79.6334 106.911 79.6686 107.478 79.739C108.045 79.7742 108.574 79.8446 109.065 79.9501C109.595 80.0205 110.048 80.0909 110.426 80.1613C110.804 80.2317 111.069 80.2845 111.22 80.3196V78.9472C111.22 78.1378 111.125 77.346 110.936 76.5719C110.747 75.7625 110.407 75.0587 109.916 74.4604C109.424 73.827 108.744 73.3343 107.875 72.9824C107.043 72.5953 105.947 72.4018 104.586 72.4018C102.848 72.4018 101.317 72.5249 99.9938 72.7713C98.7086 72.9824 97.7448 73.2111 97.1022 73.4575L96.4785 69.393C97.1589 69.1114 98.2928 68.8475 99.8804 68.6012C101.468 68.3196 103.188 68.1789 105.04 68.1789Z" fill="#2400FF"/>
<path d="M131.26 69.6569C131.26 72.6129 131.147 75.305 130.92 77.7331C130.693 80.1261 130.41 82.5191 130.07 84.912H126.781C126.441 82.5191 126.157 80.1261 125.931 77.7331C125.704 75.305 125.59 72.6129 125.59 69.6569V59.7331H131.26V69.6569ZM132.224 93.4633C132.224 94.4135 131.884 95.2405 131.204 95.9443C130.523 96.6481 129.597 97 128.425 97C127.254 97 126.328 96.6481 125.647 95.9443C124.967 95.2405 124.627 94.4135 124.627 93.4633C124.627 92.5132 124.967 91.6862 125.647 90.9824C126.328 90.2786 127.254 89.9267 128.425 89.9267C129.597 89.9267 130.523 90.2786 131.204 90.9824C131.884 91.6862 132.224 92.5132 132.224 93.4633Z" fill="#2400FF"/>
<path fill-rule="evenodd" clip-rule="evenodd" d="M7.62939e-06 16C7.62939e-06 7.16345 7.16345 0 16 0H138C146.837 0 154 7.16344 154 16V106C154 108.899 153.229 111.617 151.882 113.962C145.802 129.137 119 135 119 135C119 135 121.167 125.167 119 122H16C7.16345 122 7.62939e-06 114.837 7.62939e-06 106V16ZM33.2155 46.8798C32.4218 47.0557 31.4012 47.1437 30.1538 47.1437C27.6592 47.1437 25.5424 46.915 23.8037 46.4575C22.1028 45.9648 20.6665 45.4194 19.4947 44.8211L17 51.3666C17.5292 51.6481 18.1718 51.9472 18.9277 52.2639C19.7215 52.5806 20.6476 52.8798 21.7059 53.1613C22.8021 53.4428 24.0494 53.6716 25.4479 53.8475C26.8465 54.0587 28.4151 54.1642 30.1538 54.1642C35.3322 54.1642 39.2066 53.2317 41.7769 51.3666C44.3471 49.4663 45.6323 46.8094 45.6323 43.3959C45.6323 41.6364 45.3866 40.1408 44.8952 38.9091C44.4038 37.6774 43.6479 36.6041 42.6273 35.6891C41.6446 34.7742 40.3972 33.9824 38.8853 33.3138C37.3733 32.61 35.5968 31.9062 33.5557 31.2023C32.5729 30.8856 31.6658 30.5865 30.8342 30.305C30.0405 29.9883 29.3223 29.654 28.6797 29.3021C28.0749 28.915 27.6025 28.4927 27.2623 28.0352C26.9221 27.5777 26.752 27.0147 26.752 26.346C26.752 25.2199 27.2056 24.393 28.1127 23.8651C29.0577 23.3021 30.5885 23.0205 32.7052 23.0205C34.5952 23.0205 36.2016 23.2317 37.5245 23.654C38.8853 24.0411 40.1137 24.4985 41.2099 25.0264L43.7613 18.5337C42.5139 17.9003 40.9264 17.3197 38.9987 16.7918C37.071 16.2639 34.7841 16 32.1383 16C29.9082 16 27.9048 16.2639 26.1283 16.7918C24.3518 17.2845 22.8399 18.0059 21.5925 18.956C20.3452 19.9062 19.3813 21.0674 18.7009 22.4399C18.0206 23.7771 17.6804 25.2903 17.6804 26.9795C17.6804 28.6686 18.0017 30.1114 18.6442 31.3079C19.2868 32.4692 20.1184 33.4721 21.1389 34.3167C22.1595 35.1261 23.3123 35.8123 24.5975 36.3754C25.8826 36.9032 27.1678 37.3783 28.4529 37.8006C31.4012 38.7155 33.4801 39.5777 34.6897 40.3871C35.8992 41.1613 36.504 42.1466 36.504 43.3431C36.504 43.9062 36.4095 44.4164 36.2205 44.8739C36.0315 45.3314 35.6913 45.7361 35.1999 46.088C34.7086 46.4047 34.0471 46.6686 33.2155 46.8798ZM65.1947 21.173C64.3254 19.4487 63.5505 18.0059 62.8701 16.8446H54.4222C54.0442 19.2727 53.6851 22 53.3449 25.0264C53.0425 28.0176 52.7591 31.1496 52.4945 34.4223C52.2677 37.6598 52.0409 40.915 51.8141 44.1877C51.6251 47.4604 51.455 50.5396 51.3038 53.4252H59.9219C60.0352 49.871 60.1864 46 60.3754 41.8123C60.5644 37.6246 60.8479 33.4018 61.2259 29.1437C61.9063 30.6217 62.6622 32.2581 63.4938 34.0528C64.3254 35.8475 65.138 37.6422 65.9318 39.437C66.7634 41.2317 67.5571 42.956 68.3131 44.61C69.0691 46.2287 69.7116 47.6188 70.2408 48.7801H76.4209C76.95 47.6188 77.5926 46.2287 78.3486 44.61C79.1045 42.956 79.8794 41.2317 80.6732 39.437L83.1679 34.0528C83.9994 32.2581 84.7554 30.6217 85.4358 29.1437C85.8138 33.4018 86.0972 37.6246 86.2862 41.8123C86.4752 46 86.6264 49.871 86.7398 53.4252H95.3578C95.2066 50.5396 95.0177 47.4604 94.7909 44.1877C94.6019 40.915 94.3751 37.6598 94.1105 34.4223C93.8837 31.1496 93.6002 28.0176 93.26 25.0264C92.9576 22 92.6175 19.2727 92.2395 16.8446H84.1884C83.508 18.0059 82.7143 19.4487 81.8071 21.173C80.9378 22.8622 80.0117 24.7097 79.0289 26.7155C78.084 28.6862 77.139 30.7097 76.1941 32.7859C75.2491 34.8622 74.3608 36.8153 73.5293 38.6452C72.6977 36.8153 71.8094 34.8622 70.8645 32.7859C69.9195 30.7097 68.9557 28.6862 67.9729 26.7155C67.0279 24.7097 66.1019 22.8622 65.1947 21.173ZM123.676 49.5718C124.772 50.9443 125.717 52.2287 126.511 53.4252H137C134.316 49.3783 131.5 45.6833 128.552 42.3402C125.642 38.9971 122.618 36.1114 119.48 33.6833C122.467 30.9032 125.301 28.1408 127.985 25.3959C130.707 22.651 133.409 19.8006 136.093 16.8446H125.604C123.6 18.9208 121.427 21.1906 119.084 23.654C116.778 26.0821 114.472 28.4223 112.166 30.6745V16.8446H103.322V53.4252H112.166V37.9589C113.527 38.9443 114.888 40.088 116.249 41.39C117.609 42.6569 118.913 43.9941 120.161 45.4018C121.446 46.7742 122.618 48.1642 123.676 49.5718ZM27.7725 96.5777C28.7175 96.6129 29.5869 96.6305 30.3806 96.6305C36.6552 96.6305 41.2288 95.7155 44.1015 93.8856C47.0119 92.0205 48.4672 89.2581 48.4672 85.5982C48.4672 83.0997 47.7868 81.1642 46.4261 79.7918C45.0653 78.4194 43.2321 77.4164 40.9264 76.783C42.6273 76.1496 43.9881 75.1994 45.0086 73.9326C46.0292 72.6305 46.5395 70.9765 46.5395 68.9707C46.5395 67.1759 46.1237 65.6628 45.2921 64.4311C44.4605 63.1994 43.3077 62.2141 41.8335 61.4751C40.3972 60.7009 38.6774 60.1554 36.6741 59.8387C34.7086 59.522 32.5918 59.3636 30.3239 59.3636C29.5302 59.3636 28.6797 59.3812 27.7725 59.4164C26.8654 59.4516 25.9393 59.5044 24.9944 59.5748C24.0872 59.6452 23.18 59.7331 22.2729 59.8387C21.3657 59.9443 20.5342 60.085 19.7782 60.261V95.7331C20.5342 95.9091 21.3657 96.0499 22.2729 96.1554C23.18 96.261 24.0872 96.349 24.9944 96.4194C25.9393 96.4897 26.8654 96.5425 27.7725 96.5777ZM55.8706 96.3138H61.1435V68.8651H55.8706V96.3138ZM56.0407 63.0587C56.7211 63.6217 57.5338 63.9032 58.4787 63.9032C59.4237 63.9032 60.2174 63.6217 60.86 63.0587C61.5404 62.4604 61.8806 61.6686 61.8806 60.6833C61.8806 59.6979 61.5404 58.9238 60.86 58.3607C60.2174 57.7625 59.4237 57.4633 58.4787 57.4633C57.5338 57.4633 56.7211 57.7625 56.0407 58.3607C55.3982 58.9238 55.0769 59.6979 55.0769 60.6833C55.0769 61.6686 55.3982 62.4604 56.0407 63.0587ZM81.8341 91.9853C80.8136 92.5132 79.2261 92.7771 77.0715 92.7771C74.8792 92.7771 73.1216 92.566 71.7987 92.1437C70.4757 91.7214 69.5119 91.4047 68.9071 91.1936L67.9432 95.4164C68.4724 95.6276 69.4741 95.9267 70.9482 96.3138C72.4223 96.7361 74.4635 96.9472 77.0715 96.9472C80.8136 96.9472 83.6863 96.2962 85.6896 94.9941C87.7307 93.6921 88.7512 91.7742 88.7512 89.2405C88.7512 87.9384 88.5434 86.8475 88.1276 85.9677C87.7118 85.0528 87.107 84.2786 86.3132 83.6452C85.5573 83.0117 84.6312 82.4663 83.5351 82.0088C82.4389 81.5161 81.1916 81.0235 79.793 80.5308C78.7347 80.1789 77.8275 79.8446 77.0715 79.5279C76.3156 79.2111 75.673 78.8768 75.1438 78.5249C74.6524 78.1378 74.2745 77.7156 74.0099 77.2581C73.7831 76.8006 73.6697 76.2727 73.6697 75.6745C73.6697 74.5132 74.2178 73.6686 75.3139 73.1408C76.4101 72.5777 77.6952 72.2962 79.1693 72.2962C80.8703 72.2962 82.3255 72.4545 83.5351 72.7713C84.7446 73.0528 85.6329 73.3343 86.1999 73.6158L87.1637 69.393C86.8613 69.2874 86.4267 69.1642 85.8597 69.0235C85.3305 68.8827 84.7068 68.7595 83.9886 68.654C83.2705 68.5132 82.4956 68.4076 81.664 68.3372C80.8325 68.2317 80.0009 68.1789 79.1693 68.1789C75.8431 68.1789 73.2161 68.9003 71.2884 70.3431C69.3607 71.7507 68.3968 73.6686 68.3968 76.0968C68.3968 77.3284 68.6236 78.3666 69.0772 79.2111C69.5308 80.0557 70.1355 80.7771 70.8915 81.3754C71.6475 81.9736 72.5357 82.5015 73.5563 82.9589C74.6147 83.3812 75.7108 83.8035 76.8447 84.2258C79.1882 85.1056 80.8703 85.8974 81.8908 86.6012C82.9114 87.305 83.4217 88.2551 83.4217 89.4516C83.4217 90.6129 82.8925 91.4575 81.8341 91.9853ZM110.369 68.9707C108.933 68.4428 107.157 68.1789 105.04 68.1789C103.188 68.1789 101.468 68.3196 99.8804 68.6012C98.2928 68.8475 97.1589 69.1114 96.4785 69.393L97.1022 73.4575C97.7448 73.2111 98.7086 72.9824 99.9938 72.7713C101.317 72.5249 102.848 72.4018 104.586 72.4018C105.947 72.4018 107.043 72.5953 107.875 72.9824C108.744 73.3343 109.424 73.827 109.916 74.4604C110.407 75.0587 110.747 75.7625 110.936 76.5719C111.125 77.346 111.22 78.1378 111.22 78.9472V80.3196C111.069 80.2845 110.804 80.2317 110.426 80.1613C110.048 80.0909 109.595 80.0205 109.065 79.9501C108.574 79.8446 108.045 79.7742 107.478 79.739C106.911 79.6686 106.363 79.6334 105.834 79.6334C104.17 79.6334 102.583 79.7918 101.071 80.1085C99.5591 80.4252 98.2361 80.9179 97.1022 81.5865C95.9682 82.2551 95.0611 83.1349 94.3807 84.2258C93.7381 85.3167 93.4168 86.6188 93.4168 88.132C93.4168 89.7155 93.7003 91.0704 94.2673 92.1965C94.8343 93.3226 95.628 94.2375 96.6486 94.9414C97.6692 95.61 98.8787 96.1026 100.277 96.4194C101.676 96.7361 103.207 96.8944 104.87 96.8944C106.041 96.8944 107.213 96.8416 108.385 96.7361C109.595 96.6657 110.71 96.5777 111.73 96.4721C112.751 96.3666 113.658 96.261 114.452 96.1554C115.283 96.0147 115.926 95.9091 116.379 95.8387V78.6833C116.379 77.1349 116.19 75.7273 115.812 74.4604C115.434 73.1584 114.792 72.0499 113.885 71.1349C113.015 70.1847 111.844 69.4633 110.369 68.9707ZM130.92 77.7331C131.147 75.305 131.26 72.6129 131.26 69.6569V59.7331H125.59V69.6569C125.59 72.6129 125.704 75.305 125.931 77.7331C126.157 80.1261 126.441 82.5191 126.781 84.912H130.07C130.41 82.5191 130.693 80.1261 130.92 77.7331ZM131.204 95.9443C131.884 95.2405 132.224 94.4135 132.224 93.4633C132.224 92.5132 131.884 91.6862 131.204 90.9824C130.523 90.2786 129.597 89.9267 128.425 89.9267C127.254 89.9267 126.328 90.2786 125.647 90.9824C124.967 91.6862 124.627 92.5132 124.627 93.4633C124.627 94.4135 124.967 95.2405 125.647 95.9443C126.328 96.6481 127.254 97 128.425 97C129.597 97 130.523 96.6481 131.204 95.9443Z" fill="white"/>
<path d="M25.2212 75.1466H31.0043C32.3651 75.1466 33.6502 75.0586 34.8597 74.8827C36.0693 74.7067 37.1088 74.39 37.9781 73.9326C38.8853 73.4751 39.5845 72.8768 40.0759 72.1378C40.6051 71.3988 40.8697 70.4663 40.8697 69.3402C40.8697 68.2845 40.6051 67.4047 40.0759 66.7009C39.5467 65.9619 38.8097 65.3812 37.8647 64.9589C36.9576 64.5015 35.8803 64.1672 34.633 63.956C33.3856 63.7449 32.0627 63.6393 30.6641 63.6393C29.2656 63.6393 28.1694 63.6569 27.3757 63.6921C26.5819 63.7273 25.8637 63.7801 25.2212 63.8504V75.1466Z" fill="white"/>
<path d="M25.2212 79.2639V92.1437C25.6369 92.1789 26.1283 92.2141 26.6953 92.2493C27.1867 92.2845 27.7537 92.3196 28.3962 92.3548H30.7208C32.3462 92.3548 33.877 92.2669 35.3133 92.0909C36.7875 91.8798 38.0726 91.5279 39.1688 91.0352C40.2649 90.5425 41.1343 89.8563 41.7769 88.9765C42.4572 88.0968 42.7974 86.9883 42.7974 85.651C42.7974 84.4546 42.5517 83.4516 42.0603 82.6422C41.569 81.7977 40.8508 81.129 39.9058 80.6364C38.9987 80.1437 37.9025 79.7918 36.6174 79.5807C35.3322 79.3695 33.8959 79.2639 32.3084 79.2639H25.2212Z" fill="white"/>
<path d="M105.493 92.7771C106.741 92.7771 107.837 92.7595 108.782 92.7243C109.765 92.654 110.577 92.5484 111.22 92.4076V84.2258C110.842 84.0499 110.218 83.9091 109.349 83.8035C108.517 83.6628 107.497 83.5924 106.287 83.5924C105.493 83.5924 104.643 83.6452 103.736 83.7507C102.866 83.8563 102.054 84.085 101.298 84.437C100.58 84.7537 99.9749 85.2111 99.4835 85.8094C98.9921 86.3724 98.7464 87.129 98.7464 88.0792C98.7464 89.8387 99.3512 91.0704 100.561 91.7742C101.77 92.4428 103.415 92.7771 105.493 92.7771Z" fill="white"/>
<path fill-rule="evenodd" clip-rule="evenodd" d="M30.3806 96.6305C29.5869 96.6305 28.7175 96.6129 27.7725 96.5777C26.8654 96.5425 25.9393 96.4897 24.9944 96.4194C24.0872 96.349 23.18 96.261 22.2729 96.1554C21.3657 96.0499 20.5342 95.9091 19.7782 95.7331V60.261C20.5342 60.085 21.3657 59.9443 22.2729 59.8387C23.18 59.7331 24.0872 59.6452 24.9944 59.5748C25.9393 59.5044 26.8654 59.4516 27.7725 59.4164C28.6797 59.3812 29.5302 59.3636 30.3239 59.3636C32.5918 59.3636 34.7086 59.522 36.6741 59.8387C38.6774 60.1554 40.3972 60.7009 41.8335 61.4751C43.3077 62.2141 44.4605 63.1994 45.2921 64.4311C46.1237 65.6628 46.5395 67.1759 46.5395 68.9707C46.5395 70.9765 46.0292 72.6305 45.0086 73.9326C43.9881 75.1994 42.6273 76.1496 40.9264 76.783C43.2321 77.4164 45.0653 78.4194 46.4261 79.7918C47.7868 81.1642 48.4672 83.0997 48.4672 85.5982C48.4672 89.2581 47.0119 92.0205 44.1015 93.8856C41.2288 95.7155 36.6552 96.6305 30.3806 96.6305ZM25.2212 92.1437V79.2639H32.3084C33.8959 79.2639 35.3322 79.3695 36.6174 79.5807C37.9025 79.7918 38.9987 80.1437 39.9058 80.6364C40.8508 81.129 41.569 81.7977 42.0603 82.6422C42.5517 83.4516 42.7974 84.4546 42.7974 85.651C42.7974 86.9883 42.4572 88.0968 41.7769 88.9765C41.1343 89.8563 40.2649 90.5425 39.1688 91.0352C38.0726 91.5279 36.7875 91.8798 35.3133 92.0909C33.877 92.2669 32.3462 92.3548 30.7208 92.3548H28.3962C27.7537 92.3196 27.1867 92.2845 26.6953 92.2493C26.1283 92.2141 25.6369 92.1789 25.2212 92.1437ZM31.0043 75.1466H25.2212V63.8504C25.8637 63.7801 26.5819 63.7273 27.3757 63.6921C28.1694 63.6569 29.2656 63.6393 30.6641 63.6393C32.0627 63.6393 33.3856 63.7449 34.633 63.956C35.8803 64.1672 36.9576 64.5015 37.8647 64.9589C38.8097 65.3812 39.5467 65.9619 40.0759 66.7009C40.6051 67.4047 40.8697 68.2845 40.8697 69.3402C40.8697 70.4663 40.6051 71.3988 40.0759 72.1378C39.5845 72.8768 38.8853 73.4751 37.9781 73.9326C37.1088 74.39 36.0693 74.7067 34.8597 74.8827C33.6502 75.0586 32.3651 75.1466 31.0043 75.1466Z" fill="#2400FF"/>
<path d="M62.8701 16.8446C63.5505 18.0059 64.3254 19.4487 65.1947 21.173C66.1019 22.8622 67.0279 24.7097 67.9729 26.7155C68.9557 28.6862 69.9195 30.7097 70.8645 32.7859C71.8094 34.8622 72.6977 36.8153 73.5293 38.6452C74.3608 36.8153 75.2491 34.8622 76.1941 32.7859C77.139 30.7097 78.084 28.6862 79.0289 26.7155C80.0117 24.7097 80.9378 22.8622 81.8071 21.173C82.7143 19.4487 83.508 18.0059 84.1884 16.8446H92.2395C92.6175 19.2727 92.9576 22 93.26 25.0264C93.6002 28.0176 93.8837 31.1496 94.1105 34.4223C94.3751 37.6598 94.6019 40.915 94.7909 44.1877C95.0177 47.4604 95.2066 50.5396 95.3578 53.4252H86.7398C86.6264 49.871 86.4752 46 86.2862 41.8123C86.0972 37.6246 85.8138 33.4018 85.4358 29.1437C84.7554 30.6217 83.9994 32.2581 83.1679 34.0528L80.6732 39.437C79.8794 41.2317 79.1045 42.956 78.3486 44.61C77.5926 46.2287 76.95 47.6188 76.4209 48.7801H70.2408C69.7116 47.6188 69.0691 46.2287 68.3131 44.61C67.5571 42.956 66.7634 41.2317 65.9318 39.437C65.138 37.6422 64.3254 35.8475 63.4938 34.0528C62.6622 32.2581 61.9063 30.6217 61.2259 29.1437C60.8479 33.4018 60.5644 37.6246 60.3754 41.8123C60.1864 46 60.0352 49.871 59.9219 53.4252H51.3038C51.455 50.5396 51.6251 47.4604 51.8141 44.1877C52.0409 40.915 52.2677 37.6598 52.4945 34.4223C52.7591 31.1496 53.0425 28.0176 53.3449 25.0264C53.6851 22 54.0442 19.2727 54.4222 16.8446H62.8701Z" fill="black"/>
<path d="M126.511 53.4252C125.717 52.2287 124.772 50.9443 123.676 49.5718C122.618 48.1642 121.446 46.7742 120.161 45.4018C118.913 43.9941 117.609 42.6569 116.249 41.39C114.888 40.088 113.527 38.9443 112.166 37.9589V53.4252H103.322V16.8446H112.166V30.6745C114.472 28.4223 116.778 26.0821 119.084 23.654C121.427 21.1906 123.6 18.9208 125.604 16.8446H136.093C133.409 19.8006 130.707 22.651 127.985 25.3959C125.301 28.1408 122.467 30.9032 119.48 33.6833C122.618 36.1114 125.642 38.9971 128.552 42.3402C131.5 45.6833 134.316 49.3783 137 53.4252H126.511Z" fill="black"/>
<path fill-rule="evenodd" clip-rule="evenodd" d="M56.0407 63.0587C56.7211 63.6217 57.5338 63.9032 58.4787 63.9032C59.4237 63.9032 60.2174 63.6217 60.86 63.0587C61.5404 62.4604 61.8806 61.6686 61.8806 60.6833C61.8806 59.6979 61.5404 58.9238 60.86 58.3607C60.2174 57.7625 59.4237 57.4633 58.4787 57.4633C57.5338 57.4633 56.7211 57.7625 56.0407 58.3607C55.3982 58.9238 55.0769 59.6979 55.0769 60.6833C55.0769 61.6686 55.3982 62.4604 56.0407 63.0587ZM77.0715 92.7771C79.2261 92.7771 80.8136 92.5132 81.8341 91.9853C82.8925 91.4575 83.4217 90.6129 83.4217 89.4516C83.4217 88.2551 82.9114 87.305 81.8908 86.6012C80.8703 85.8974 79.1882 85.1056 76.8447 84.2258C75.7108 83.8035 74.6147 83.3812 73.5563 82.9589C72.5357 82.5015 71.6475 81.9736 70.8915 81.3754C70.1355 80.7771 69.5308 80.0557 69.0772 79.2111C68.6236 78.3666 68.3968 77.3284 68.3968 76.0968C68.3968 73.6686 69.3607 71.7507 71.2884 70.3431C73.2161 68.9003 75.8431 68.1789 79.1693 68.1789C80.0009 68.1789 80.8325 68.2317 81.664 68.3372C82.4956 68.4076 83.2705 68.5132 83.9886 68.654C84.7068 68.7595 85.3305 68.8827 85.8597 69.0235C86.4267 69.1642 86.8613 69.2874 87.1637 69.393L86.1999 73.6158C85.6329 73.3343 84.7446 73.0528 83.5351 72.7713C82.3255 72.4545 80.8703 72.2962 79.1693 72.2962C77.6952 72.2962 76.4101 72.5777 75.3139 73.1408C74.2178 73.6686 73.6697 74.5132 73.6697 75.6745C73.6697 76.2727 73.7831 76.8006 74.0099 77.2581C74.2745 77.7156 74.6524 78.1378 75.1438 78.5249C75.673 78.8768 76.3156 79.2111 77.0715 79.5279C77.8275 79.8446 78.7347 80.1789 79.793 80.5308C81.1916 81.0235 82.4389 81.5161 83.5351 82.0088C84.6312 82.4663 85.5573 83.0117 86.3132 83.6452C87.107 84.2786 87.7118 85.0528 88.1276 85.9677C88.5434 86.8475 88.7512 87.9384 88.7512 89.2405C88.7512 91.7742 87.7307 93.6921 85.6896 94.9941C83.6863 96.2962 80.8136 96.9472 77.0715 96.9472C74.4635 96.9472 72.4223 96.7361 70.9482 96.3138C69.4741 95.9267 68.4724 95.6276 67.9432 95.4164L68.9071 91.1936C69.5119 91.4047 70.4757 91.7214 71.7987 92.1437C73.1216 92.566 74.8792 92.7771 77.0715 92.7771ZM105.04 68.1789C107.157 68.1789 108.933 68.4428 110.369 68.9707C111.844 69.4633 113.015 70.1847 113.885 71.1349C114.792 72.0499 115.434 73.1584 115.812 74.4604C116.19 75.7273 116.379 77.1349 116.379 78.6833V95.8387C115.926 95.9091 115.283 96.0147 114.452 96.1554C113.658 96.261 112.751 96.3666 111.73 96.4721C110.71 96.5777 109.595 96.6657 108.385 96.7361C107.213 96.8416 106.041 96.8944 104.87 96.8944C103.207 96.8944 101.676 96.7361 100.277 96.4194C98.8787 96.1026 97.6692 95.61 96.6486 94.9414C95.628 94.2375 94.8343 93.3226 94.2673 92.1965C93.7003 91.0704 93.4168 89.7155 93.4168 88.132C93.4168 86.6188 93.7381 85.3167 94.3807 84.2258C95.0611 83.1349 95.9682 82.2551 97.1022 81.5865C98.2361 80.9179 99.5591 80.4252 101.071 80.1085C102.583 79.7918 104.17 79.6334 105.834 79.6334C106.363 79.6334 106.911 79.6686 107.478 79.739C108.045 79.7742 108.574 79.8446 109.065 79.9501C109.595 80.0205 110.048 80.0909 110.426 80.1613C110.804 80.2317 111.069 80.2845 111.22 80.3196V78.9472C111.22 78.1378 111.125 77.346 110.936 76.5719C110.747 75.7625 110.407 75.0587 109.916 74.4604C109.424 73.827 108.744 73.3343 107.875 72.9824C107.043 72.5953 105.947 72.4018 104.586 72.4018C102.848 72.4018 101.317 72.5249 99.9938 72.7713C98.7086 72.9824 97.7448 73.2111 97.1022 73.4575L96.4785 69.393C97.1589 69.1114 98.2928 68.8475 99.8804 68.6012C101.468 68.3196 103.188 68.1789 105.04 68.1789ZM131.26 69.6569C131.26 72.6129 131.147 75.305 130.92 77.7331C130.693 80.1261 130.41 82.5191 130.07 84.912H126.781C126.441 82.5191 126.157 80.1261 125.931 77.7331C125.704 75.305 125.59 72.6129 125.59 69.6569V59.7331H131.26V69.6569ZM132.224 93.4633C132.224 94.4135 131.884 95.2405 131.204 95.9443C130.523 96.6481 129.597 97 128.425 97C127.254 97 126.328 96.6481 125.647 95.9443C124.967 95.2405 124.627 94.4135 124.627 93.4633C124.627 92.5132 124.967 91.6862 125.647 90.9824C126.328 90.2786 127.254 89.9267 128.425 89.9267C129.597 89.9267 130.523 90.2786 131.204 90.9824C131.884 91.6862 132.224 92.5132 132.224 93.4633ZM105.493 92.7771C106.741 92.7771 107.837 92.7595 108.782 92.7243C109.765 92.654 110.577 92.5484 111.22 92.4076V84.2258C110.842 84.0499 110.218 83.9091 109.349 83.8035C108.517 83.6628 107.497 83.5924 106.287 83.5924C105.493 83.5924 104.643 83.6452 103.736 83.7507C102.866 83.8563 102.054 84.085 101.298 84.437C100.58 84.7537 99.9749 85.2111 99.4835 85.8094C98.9921 86.3724 98.7464 87.129 98.7464 88.0792C98.7464 89.8387 99.3512 91.0704 100.561 91.7742C101.77 92.4428 103.415 92.7771 105.493 92.7771Z" fill="#2400FF"/>
<path d="M61.1435 96.3138H55.8706V68.8651H61.1435V96.3138Z" fill="#2400FF"/>
<path d="M30.1538 47.1437C31.4012 47.1437 32.4218 47.0557 33.2155 46.8798C34.0471 46.6686 34.7086 46.4047 35.1999 46.088C35.6913 45.7361 36.0315 45.3314 36.2205 44.8739C36.4095 44.4164 36.504 43.9062 36.504 43.3431C36.504 42.1466 35.8992 41.1613 34.6897 40.3871C33.4801 39.5777 31.4012 38.7155 28.4529 37.8006C27.1678 37.3783 25.8826 36.9032 24.5975 36.3754C23.3123 35.8123 22.1595 35.1261 21.1389 34.3167C20.1184 33.4721 19.2868 32.4692 18.6442 31.3079C18.0017 30.1114 17.6804 28.6686 17.6804 26.9795C17.6804 25.2903 18.0206 23.7771 18.7009 22.4399C19.3813 21.0674 20.3452 19.9062 21.5925 18.956C22.8399 18.0059 24.3518 17.2845 26.1283 16.7918C27.9048 16.2639 29.9082 16 32.1383 16C34.7841 16 37.071 16.2639 38.9987 16.7918C40.9264 17.3197 42.5139 17.9003 43.7613 18.5337L41.2099 25.0264C40.1137 24.4985 38.8853 24.0411 37.5245 23.654C36.2016 23.2317 34.5952 23.0205 32.7052 23.0205C30.5885 23.0205 29.0577 23.3021 28.1127 23.8651C27.2056 24.393 26.752 25.2199 26.752 26.346C26.752 27.0147 26.9221 27.5777 27.2623 28.0352C27.6025 28.4927 28.0749 28.915 28.6797 29.3021C29.3223 29.654 30.0405 29.9883 30.8342 30.305C31.6658 30.5865 32.5729 30.8856 33.5557 31.2023C35.5968 31.9062 37.3733 32.61 38.8853 33.3138C40.3972 33.9824 41.6446 34.7742 42.6273 35.6891C43.6479 36.6041 44.4038 37.6774 44.8952 38.9091C45.3866 40.1408 45.6323 41.6364 45.6323 43.3959C45.6323 46.8094 44.3471 49.4663 41.7769 51.3666C39.2066 53.2317 35.3322 54.1642 30.1538 54.1642C28.4151 54.1642 26.8465 54.0587 25.4479 53.8475C24.0494 53.6716 22.8021 53.4428 21.7059 53.1613C20.6476 52.8798 19.7215 52.5806 18.9277 52.2639C18.1718 51.9472 17.5292 51.6481 17 51.3666L19.4947 44.8211C20.6665 45.4194 22.1028 45.9648 23.8037 46.4575C25.5424 46.915 27.6592 47.1437 30.1538 47.1437Z" fill="black"/>
</svg>
